<?xml version="1.0" encoding="utf-8"?>
<!-- Generator: Adobe Illustrator 15.0.0, SVG Export Plug-In  -->
<!DOCTYPE svg PUBLIC "-//W3C//DTD SVG 1.1//EN" "http://www.w3.org/Graphics/SVG/1.1/DTD/svg11.dtd" [
	<!ENTITY ns_flows "http://ns.adobe.com/Flows/1.0/">
]>
<svg version="1.1"
	 xmlns="http://www.w3.org/2000/svg" xmlns:xlink="http://www.w3.org/1999/xlink" xmlns:a="http://ns.adobe.com/AdobeSVGViewerExtensions/3.0/"
	 x="0px" y="0px" width="174px" height="174px" viewBox="194.423828 211.292969 174 174"
	 enable-background="new 194.423828 211.292969 174 174" xml:space="preserve">
<defs>
</defs>
<g>
	<defs>
		<path id="SVGID_12_" d="M0.206055,87.212891c0,48.164063,39.044922,87.210938,87.210938,87.210938
			s87.210938-39.046875,87.210938-87.210938c0-48.16748-39.044922-87.212402-87.210938-87.212402
			S0.206055,39.04541,0.206055,87.212891"/>
	</defs>
	<clipPath id="SVGID_16_">
		<use xlink:href="#SVGID_12_"  overflow="visible"/>
	</clipPath>
	<g clip-path="url(#SVGID_16_)">
		<defs>
			<polyline id="SVGID_14_" points="28.920898,232.621094 244.875977,232.621094 244.875977,43.812988 28.920898,43.812988 
				28.920898,232.621094 			"/>
		</defs>
		<clipPath id="SVGID_18_">
			<use xlink:href="#SVGID_14_"  overflow="visible"/>
		</clipPath>
		<path clip-path="url(#SVGID_18_)" fill="#275172" d="M146.407227,44.181152c0.022461,0.039063,0.043945,0.079102,0.06543,0.120605
			c0,0,0,0.000488,0,0.000977c0.003906,0.005859,0.005859,0.01123,0.008789,0.01709
			c0.000977,0.000977,0.000977,0.000977,0.001953,0.002441c0.00293,0.005371,0.004883,0.010254,0.007813,0.016113
			c0,0.000488,0.000977,0.001465,0.000977,0.002441c0.00293,0.005371,0.005859,0.010742,0.007813,0.016113
			c0.000977,0.000977,0.000977,0.001953,0.001953,0.002441c0.001953,0.005371,0.004883,0.01123,0.007813,0.016602
			c0,0.000977,0.000977,0.001465,0.000977,0.002441c0.00293,0.005371,0.004883,0.010742,0.007813,0.016113
			c0,0.000977,0.000977,0.002441,0.000977,0.00293c0.00293,0.005371,0.005859,0.011719,0.008789,0.01709
			c0,0.000488,0,0.000977,0,0.001465c0.00293,0.005859,0.005859,0.012207,0.008789,0.017578
			c0,0.000977,0,0.001465,0.000977,0.001953c0.001953,0.005859,0.004883,0.012207,0.007813,0.018066
			c0,0.000488,0.000977,0.000977,0.000977,0.001465c0.00293,0.006348,0.004883,0.011719,0.007813,0.018066
			c0,0.000488,0.000977,0.001465,0.000977,0.001465c0.035156,0.07959,0.068359,0.161621,0.099609,0.247559v0.000488
			c0.005859,0.01416,0.010742,0.027832,0.015625,0.04248l0.000977,0.000977c0.001953,0.007324,0.004883,0.013672,0.006836,0.020996
			v0.000488c0.00293,0.006836,0.004883,0.01416,0.007813,0.020996c0,0.000488,0,0.000977,0,0.001465
			c0.025391,0.073242,0.049805,0.148438,0.072266,0.226563v0.000977c0.004883,0.015137,0.008789,0.030273,0.013672,0.04541
			c0,0.000977,0,0.001465,0,0.002441c0.001953,0.006836,0.003906,0.013672,0.005859,0.020996
			c0.000977,0.000977,0.000977,0.002441,0.000977,0.003418c0.001953,0.006348,0.003906,0.013184,0.005859,0.02002
			c0,0.001465,0.000977,0.002441,0.000977,0.003906c0.001953,0.006836,0.003906,0.012695,0.005859,0.019531
			c0,0.001465,0,0.00293,0.000977,0.004395c0.001953,0.006348,0.00293,0.013184,0.004883,0.019043
			c0,0.001465,0.000977,0.003906,0.000977,0.005371c0.001953,0.005859,0.003906,0.012695,0.005859,0.019043
			c0,0.001465,0,0.00293,0.000977,0.004395c0.001953,0.006836,0.00293,0.013184,0.004883,0.02002
			c0,0.001465,0.000977,0.00293,0.000977,0.004395c0.001953,0.006836,0.003906,0.014648,0.005859,0.021973
			c0,0.000488,0,0.000977,0,0.001465c0.001953,0.007813,0.003906,0.014648,0.005859,0.022461
			c0,0.000488,0,0.001953,0.000977,0.002441c0.009766,0.041504,0.019531,0.082031,0.029297,0.125c0,0.000488,0,0,0,0.000488
			c0.001953,0.008301,0.003906,0.016113,0.004883,0.024414c0.000977,0.000977,0.000977,0.001953,0.000977,0.00293
			c0.001953,0.007324,0.00293,0.014648,0.004883,0.021973c0.000977,0.002441,0.000977,0.003418,0.000977,0.005371
			c0.001953,0.006836,0.00293,0.012207,0.003906,0.018555c0.000977,0.003418,0.001953,0.006836,0.00293,0.010254
			c0.000977,0.004883,0.001953,0.010254,0.00293,0.015137c0.000977,0.003906,0.000977,0.007324,0.001953,0.01123
			c0.000977,0.004395,0.001953,0.008301,0.00293,0.013184c0.000977,0.004395,0.001953,0.008301,0.00293,0.012695
			s0.001953,0.008301,0.001953,0.012695c0.000977,0.004883,0.001953,0.009277,0.00293,0.01416
			c0.000977,0.00293,0.001953,0.006348,0.001953,0.009766c0.000977,0.005371,0.00293,0.010742,0.003906,0.016113
			c0,0.00293,0.000977,0.006348,0.001953,0.009766c0.000977,0.004883,0.001953,0.010742,0.00293,0.015625
			c0,0.003418,0.000977,0.006348,0.001953,0.009277c0.000977,0.005859,0.001953,0.010742,0.00293,0.016602
			c0,0.00293,0.000977,0.006348,0.001953,0.009766c0.000977,0.005371,0.001953,0.010742,0.00293,0.016602
			c0,0.001953,0.000977,0.004883,0.000977,0.006836c0.000977,0.006348,0.00293,0.013184,0.003906,0.019043
			c0,0.002441,0.000977,0.004395,0.000977,0.006348c0.000977,0.006836,0.001953,0.013184,0.003906,0.02002
			c0,0.001465,0,0.002441,0,0.004395c0.001953,0.007324,0.00293,0.014648,0.003906,0.021973l0.000977,0.000488
			c1.37793,7.827637-6.289063,31.510254-13.295898,39.507324c5.799805,8.496582,9.833008,16.105957,11.485352,19.374512
			c0.549805,1.086914,0.835938,1.693359,0.835938,1.693359l-45.995117,28.378906l-0.905273,0.554688l-9.323242,5.75
			c-0.708984,0.436523-1.509766,0.654297-2.310547,0.654297c-0.198242,0-0.397461-0.012695-0.594727-0.040039
			c-0.598633-0.081055-1.183594-0.286133-1.716797-0.614258l-9.146484-5.638672l-0.175781-0.111328l-0.904297-0.554688
			l-45.697266-28.205078l-0.257813,0.138672l67.34375,67.34375c44.010742-4.43457,78.363281-41.59082,78.363281-86.767578
			c0-5.585938-0.524414-11.044922-1.52832-16.338867L146.407227,44.181152"/>
	</g>
</g>
<g>
	<defs>
		<path id="SVGID_8_" d="M194.061523,87.211914c0,48.165039,39.045898,87.210938,87.211914,87.210938
			c48.165039,0,87.211914-39.045898,87.211914-87.210938C368.485352,39.044922,329.438477,0,281.273438,0
			C233.107422,0,194.061523,39.044922,194.061523,87.211914"/>
	</defs>
	<clipPath id="SVGID_20_">
		<use xlink:href="#SVGID_8_"  overflow="visible"/>
	</clipPath>
	<g clip-path="url(#SVGID_20_)">
		<defs>
			<polyline id="SVGID_10_" points="221.694336,233.854492 433.594727,233.854492 433.594727,55.068359 221.694336,55.068359 
				221.694336,233.854492 			"/>
		</defs>
		<clipPath id="SVGID_22_">
			<use xlink:href="#SVGID_10_"  overflow="visible"/>
		</clipPath>
		<path clip-path="url(#SVGID_22_)" fill="#43D0D9" d="M368.305664,81.572754c0.119141,1.863281,0.179688,3.745605,0.179688,5.63916
			l0,0C368.485352,85.318359,368.424805,83.436035,368.305664,81.572754L368.305664,81.572754"/>
		<path clip-path="url(#SVGID_22_)" fill="#00A4A0" d="M341.802734,55.069336l-0.145508,0.06543
			c0.017578,0.028809,0.03418,0.058105,0.050781,0.087891c2.438477,4.429199-7.066406,24.522461-13.473633,34.417969
			c7.858398,10.03125,12.567383,18.699219,12.640625,18.833984v0.000977c0.000977,0,0.000977,0,0.000977,0.000977l0,0l0,0l0,0l0,0
			l0,0c0,0-0.014648,0.015625-0.043945,0.045898c-1.209961,1.270508-27.401367,28.364258-59.532227,28.364258l-0.032227-0.000977
			c-30.829102-0.016602-56.179688-24.963867-59.235352-28.088867l-0.337891,0.151367l65.290039,65.291016
			c45.501953-2.943359,81.500977-40.782227,81.500977-87.027344c0-1.893555-0.060547-3.775879-0.179688-5.63916
			L341.802734,55.069336"/>
	</g>
</g>
<g>
	<defs>
		<path id="SVGID_4_" d="M0,298.503906c0,48.166016,39.046875,87.212891,87.211914,87.212891
			c48.166016,0,87.211914-39.046875,87.211914-87.212891s-39.045898-87.210938-87.211914-87.210938
			C39.046875,211.292969,0,250.337891,0,298.503906"/>
	</defs>
	<clipPath id="SVGID_24_">
		<use xlink:href="#SVGID_4_"  overflow="visible"/>
	</clipPath>
	<g clip-path="url(#SVGID_24_)">
		<defs>
			<polyline id="SVGID_6_" points="44.220703,445.421875 235.707031,445.421875 235.707031,262.929688 44.220703,262.929688 
				44.220703,445.421875 			"/>
		</defs>
		<clipPath id="SVGID_26_">
			<use xlink:href="#SVGID_6_"  overflow="visible"/>
		</clipPath>
		<path clip-path="url(#SVGID_26_)" fill="#59980B" d="M136.655273,262.929688L136.655273,262.929688l-0.041992,0.03418
			c2.488281,2.592773,4.03125,6.098633,4.077148,9.96582v0.354492c-0.015625,1.293945-0.199219,2.546875-0.529297,3.739258
			c-0.001953,0.005859-0.00293,0.011719-0.004883,0.017578c-0.000977,0.00293-0.001953,0.005859-0.00293,0.008789
			c-1.512695,5.426758-6.070313,9.583984-11.716797,10.512695c5.776367,9.455078,9.212891,20.039063,9.321289,29.407227
			c0,0.005859,0,0.010742,0,0.015625c0.000977,0.011719,0.000977,0.027344,0.000977,0.039063c0,0.008789,0,0.017578,0,0.026367
			c0,0.011719,0,0.022461,0.000977,0.03418c0,0.011719,0,0.022461,0,0.03418c0,0.008789,0,0.020508,0,0.029297
			c0,0.019531,0,0.041016,0,0.060547c0,0.007813,0,0.014648,0,0.021484c0.000977,0.014648,0.000977,0.029297,0.000977,0.042969
			c0,0.008789,0,0.016602,0,0.025391c0,0.014648,0,0.02832,0,0.042969c0,0.006836,0,0.014648,0,0.021484
			c0,0.021484,0,0.042969,0,0.064453l0,0l0,0c0,24.275391-22.630859,30.890625-50.547852,30.890625l0,0
			c-0.000977,0-0.000977,0-0.000977,0l0,0c-17.967773,0-33.746094-2.741211-42.710938-11.166016l-0.279297,0.224609l48.1875,48.1875
			c45.035156-2.644531,80.881836-39.459961,81.988281-84.892578L136.655273,262.929688"/>
	</g>
</g>
<path fill="#EDC71F" d="M368.847656,298.504883c0,48.166016-39.045898,87.211914-87.211914,87.211914
	c-48.165039,0-87.210938-39.045898-87.210938-87.211914s39.045898-87.211914,87.210938-87.211914
	C329.801758,211.292969,368.847656,250.338867,368.847656,298.504883"/>
<path fill="#EDC71F" d="M368.847656,298.504883c0,48.166016-39.045898,87.211914-87.211914,87.211914
	c-48.165039,0-87.210938-39.045898-87.210938-87.211914s39.045898-87.211914,87.210938-87.211914
	C329.801758,211.292969,368.847656,250.338867,368.847656,298.504883"/>
<g>
	<defs>
		<path id="SVGID_2_" d="M194.423828,298.504883c0,48.165039,39.046875,87.210938,87.211914,87.210938
			c48.166016,0,87.211914-39.045898,87.211914-87.210938c0-48.166992-39.045898-87.211914-87.211914-87.211914
			C233.470703,211.292969,194.423828,250.337891,194.423828,298.504883"/>
	</defs>
	<clipPath id="SVGID_28_">
		<use xlink:href="#SVGID_2_"  overflow="visible"/>
	</clipPath>
	<g clip-path="url(#SVGID_28_)">
		<defs>
			<polyline id="SVGID_3_" points="244.006836,442.473633 430.456055,442.473633 430.456055,250.78418 244.006836,250.78418 
				244.006836,442.473633 			"/>
		</defs>
		<clipPath id="SVGID_30_">
			<use xlink:href="#SVGID_3_"  overflow="visible"/>
		</clipPath>
		<path clip-path="url(#SVGID_30_)" fill="#EDA603" d="M318.65918,250.78418L318.65918,250.78418l-0.073242,0.083984
			c1.939453,1.936523,3.139648,4.614258,3.139648,7.572266l0,0c0,0.000977,0,0.000977,0,0.000977c0,0.015625,0,0.030273,0,0.045898
			c0,0.001953,0,0.004883,0,0.007813c-0.020508,4.273438-2.545898,7.954102-6.183594,9.651367
			c7.512695,15.474609,12.363281,36.454102,12.549805,47.852539c0,0.001953,0,0.004883,0,0.006836
			c0,0.020508,0.000977,0.041016,0.000977,0.061523c0,0.00293,0,0.003906,0,0.006836
			c0.000977,0.020508,0.000977,0.039063,0.000977,0.058594c0,0.005859,0,0.011719,0,0.016602
			c0.000977,0.017578,0.000977,0.03418,0.000977,0.051758c0,0.005859,0,0.010742,0,0.015625
			c0,0.017578,0.000977,0.03418,0.000977,0.051758c0,0.006836,0,0.012695,0,0.019531c0,0.016602,0,0.032227,0,0.047852
			c0,0.006836,0,0.014648,0,0.021484c0.000977,0.015625,0.000977,0.030273,0.000977,0.044922c0,0.009766,0,0.018555,0,0.02832
			c0,0.012695,0,0.026367,0,0.039063c0,0.009766,0,0.020508,0.000977,0.030273c0,0.011719,0,0.025391,0,0.037109
			c0,0.012695,0,0.025391,0,0.039063c0,0.009766,0,0.017578,0,0.02832c0,0.021484,0,0.044922,0,0.066406l0,0l0,0l0,0
			c0,24.043945-35.577148,35.916992-46.461914,35.916992c-7.186523,0-26.237305-5.541992-37.587891-16.717773l-0.041016,0.046875
			l49.056641,49.056641c41.977539-5.495117,74.566406-40.844727,75.750977-84.03418L318.65918,250.78418"/>
	</g>
</g>
<path fill="#A86353" d="M259.777344,259.710938c-4.729492,0-9.09375,2.613281-11.246094,6.825195
	c-8.121094,15.900391-13.357422,38.517578-13.357422,50.134766c0,24.043945,35.941406,35.916992,46.461914,35.916992
	c10.884766,0,46.461914-11.873047,46.461914-35.916992c0-11.617188-5.235352-34.234375-13.357422-50.134766
	c-2.151367-4.211914-6.515625-6.825195-11.245117-6.825195H259.777344"/>
<path fill="#A86353" d="M262.952148,258.441406c0,5.911133-4.791992,10.703125-10.703125,10.703125
	s-10.702148-4.791992-10.702148-10.703125s4.791016-10.703125,10.702148-10.703125S262.952148,252.530273,262.952148,258.441406"/>
<path fill="#8A4C3D" d="M252.249023,264.790039c-3.500977,0-6.348633-2.847656-6.348633-6.348633
	s2.847656-6.349609,6.348633-6.349609s6.348633,2.848633,6.348633,6.349609S255.75,264.790039,252.249023,264.790039"/>
<path fill="#A86353" d="M321.725586,258.441406c0,5.911133-4.791992,10.703125-10.703125,10.703125
	s-10.702148-4.791992-10.702148-10.703125s4.791016-10.703125,10.702148-10.703125S321.725586,252.530273,321.725586,258.441406"/>
<path fill="#8A4C3D" d="M311.022461,264.790039c-3.500977,0-6.348633-2.847656-6.348633-6.348633
	s2.847656-6.349609,6.348633-6.349609s6.349609,2.848633,6.349609,6.349609S314.523438,264.790039,311.022461,264.790039"/>
<path fill="#C2B184" d="M291.975586,340.43457c0,3.90625-4.628906,7.074219-10.339844,7.074219
	c-5.709961,0-10.339844-3.167969-10.339844-7.074219c0-3.907227,4.629883-7.075195,10.339844-7.075195
	C287.34668,333.359375,291.975586,336.527344,291.975586,340.43457"/>
<path fill="#E4D3A8" d="M281.635742,287.28418c-6.00293,0-11.057617,4.040039-11.769531,9.405273l-5.026367,37.862305
	c-0.521484,3.933594,2.888672,7.393555,7.289063,7.393555h19.013672c4.400391,0,7.811523-3.459961,7.289063-7.393555
	l-5.025391-37.862305C292.693359,291.324219,287.637695,287.28418,281.635742,287.28418"/>
<path fill="#474747" d="M294.817383,331.364258c0,2.705078-6.063477,7.075195-13.544922,7.075195
	c-7.479492,0-13.543945-4.370117-13.543945-7.075195s6.064453-4.898438,13.543945-4.898438
	C288.753906,326.46582,294.817383,328.65918,294.817383,331.364258"/>
<path fill="#595959" d="M289.155273,330.620117c0,1.574219-3.529297,4.117188-7.881836,4.117188
	c-4.353516,0-7.882813-2.542969-7.882813-4.117188c0-1.573242,3.529297-2.849609,7.882813-2.849609
	C285.625977,327.770508,289.155273,329.046875,289.155273,330.620117"/>
<path fill="#474747" d="M265.87207,300.044922c0,1.774414-1.438477,3.211914-3.211914,3.211914
	c-1.775391,0-3.212891-1.4375-3.212891-3.211914c0-1.773438,1.4375-3.211914,3.212891-3.211914
	C264.433594,296.833008,265.87207,298.271484,265.87207,300.044922"/>
<path fill="#FFFFFF" d="M262.874023,298.974609c0,0.630859-0.511719,1.141602-1.142578,1.141602
	s-1.141602-0.510742-1.141602-1.141602s0.510742-1.142578,1.141602-1.142578S262.874023,298.34375,262.874023,298.974609"/>
<path fill="#474747" d="M304.308594,300.044922c0,1.774414-1.4375,3.211914-3.211914,3.211914
	c-1.775391,0-3.212891-1.4375-3.212891-3.211914c0-1.773438,1.4375-3.211914,3.212891-3.211914
	C302.871094,296.833008,304.308594,298.271484,304.308594,300.044922"/>
<path fill="#FFFFFF" d="M301.310547,298.974609c0,0.630859-0.511719,1.141602-1.142578,1.141602
	s-1.141602-0.510742-1.141602-1.141602s0.510742-1.142578,1.141602-1.142578S301.310547,298.34375,301.310547,298.974609"/>
<g>
	<defs>
		<polyline id="SVGID_1_" points="281.293945,352.587891 328.097656,352.587891 328.097656,247.738281 281.293945,247.738281 
			281.293945,352.587891 		"/>
	</defs>
	<clipPath id="SVGID_32_">
		<use xlink:href="#SVGID_1_"  overflow="visible"/>
	</clipPath>
	<path clip-path="url(#SVGID_32_)" fill="#D89C15" d="M311.022461,247.738281L311.022461,247.738281
		c-5.911133,0-10.702148,4.791016-10.702148,10.702148l0,0C300.320313,252.530273,305.111328,247.738281,311.022461,247.738281
		c2.953125,0,5.626953,1.196289,7.563477,3.129883l0,0C316.649414,248.933594,313.975586,247.738281,311.022461,247.738281"/>
	<path clip-path="url(#SVGID_32_)" fill="#D88202" d="M328.097656,316.604492c0,0.021484,0,0.044922,0,0.066406l0,0
		C328.097656,316.649414,328.097656,316.625977,328.097656,316.604492 M328.097656,316.537109c0,0.012695,0,0.026367,0,0.039063
		C328.097656,316.5625,328.097656,316.549805,328.097656,316.537109 M328.09668,316.469727c0,0.010742,0,0.019531,0.000977,0.030273
		C328.09668,316.490234,328.09668,316.479492,328.09668,316.469727 M328.09668,316.402344c0,0.009766,0,0.019531,0,0.02832
		C328.09668,316.420898,328.09668,316.412109,328.09668,316.402344 M328.095703,316.335938c0,0.006836,0,0.014648,0,0.021484
		C328.095703,316.350586,328.095703,316.342773,328.095703,316.335938 M328.095703,316.268555c0,0.005859,0,0.013672,0,0.019531
		C328.095703,316.28125,328.095703,316.275391,328.095703,316.268555 M328.094727,316.201172c0,0.004883,0,0.010742,0,0.015625
		C328.094727,316.211914,328.094727,316.207031,328.094727,316.201172 M328.09375,316.132813c0,0.004883,0,0.011719,0,0.016602
		C328.09375,316.144531,328.09375,316.138672,328.09375,316.132813 M328.092773,316.067383c0,0.001953,0,0.004883,0,0.006836
		C328.092773,316.071289,328.092773,316.070313,328.092773,316.067383 M328.091797,315.999023c0,0.001953,0,0.004883,0,0.006836
		C328.091797,316.003906,328.091797,316.000977,328.091797,315.999023 M321.725586,258.487305c0,0.001953,0,0.004883,0,0.007813
		C321.725586,258.492188,321.725586,258.489258,321.725586,258.487305 M318.585938,250.868164L318.585938,250.868164
		c1.939453,1.9375,3.139648,4.615234,3.139648,7.572266l0,0C321.725586,255.482422,320.525391,252.804688,318.585938,250.868164"/>
	<path clip-path="url(#SVGID_32_)" fill="#994E38" d="M301.09668,303.256836c-1.775391,0-3.212891-1.4375-3.212891-3.211914
		c0-1.773438,1.4375-3.211914,3.212891-3.211914c1.774414,0,3.211914,1.438477,3.211914,3.211914
		C304.308594,301.819336,302.871094,303.256836,301.09668,303.256836 M300.394531,259.710938h-19.100586v27.577148
		c0.113281-0.00293,0.227539-0.003906,0.341797-0.003906c6.001953,0,11.057617,4.040039,11.770508,9.405273l5.025391,37.862305
		c0.498047,3.751953-2.582031,7.072266-6.685547,7.371094c-0.999023,3.192383-5.146484,5.585938-10.110352,5.585938
		c-0.114258,0-0.228516-0.000977-0.341797-0.003906v5.070313c0.112305,0.003906,0.236328,0.012695,0.341797,0.012695
		c10.883789,0,46.461914-11.873047,46.461914-35.916992c0-0.021484,0-0.044922,0-0.066406c0-0.009766,0-0.018555,0-0.02832
		c0-0.012695,0-0.026367,0-0.039063s0-0.025391,0-0.037109c-0.000977-0.010742-0.000977-0.019531-0.000977-0.030273
		c0-0.012695,0-0.025391,0-0.039063c0-0.008789,0-0.018555,0-0.02832c0-0.014648,0-0.030273-0.000977-0.044922
		c0-0.006836,0-0.014648,0-0.021484c0-0.016602,0-0.03125,0-0.047852c0-0.005859,0-0.013672,0-0.019531
		c0-0.017578-0.000977-0.03418-0.000977-0.051758c0-0.004883,0-0.010742,0-0.015625c0-0.016602,0-0.03418-0.000977-0.051758
		c0-0.004883,0-0.011719,0-0.016602c0-0.019531,0-0.039063-0.000977-0.058594c0-0.001953,0-0.004883,0-0.006836
		c0-0.020508-0.000977-0.041016-0.000977-0.061523c0-0.001953,0-0.004883,0-0.006836
		c-0.1875-11.401367-5.048828-32.369141-12.563477-47.84668c-1.370117,0.636719-2.896484,0.992188-4.505859,0.992188
		C305.541016,269.144531,301.022461,265.023438,300.394531,259.710938"/>
	<path clip-path="url(#SVGID_32_)" fill="#994E38" d="M311.022461,264.790039c-3.500977,0-6.348633-2.847656-6.348633-6.348633
		s2.847656-6.349609,6.348633-6.349609s6.349609,2.848633,6.349609,6.349609S314.523438,264.790039,311.022461,264.790039
		 M311.022461,247.738281c-5.911133,0-10.702148,4.791992-10.702148,10.702148c0,0.431641,0.032227,0.853516,0.082031,1.270508
		h-0.007813l0,0c0.62793,5.3125,5.146484,9.433594,10.62793,9.433594c1.609375,0,3.135742-0.355469,4.505859-0.992188
		c-0.001953-0.003906-0.003906-0.006836-0.005859-0.010742c3.644531-1.694336,6.181641-5.367188,6.203125-9.646484
		c0-0.00293,0-0.005859,0-0.007813c0-0.015625,0-0.03125,0-0.046875c0-2.957031-1.200195-5.634766-3.139648-7.572266
		C316.649414,248.93457,313.975586,247.738281,311.022461,247.738281"/>
	<path clip-path="url(#SVGID_32_)" fill="#7E3C29" d="M311.022461,252.091797c-3.500977,0-6.348633,2.848633-6.348633,6.349609
		s2.847656,6.348633,6.348633,6.348633s6.349609-2.847656,6.349609-6.348633S314.523438,252.091797,311.022461,252.091797"/>
	<path clip-path="url(#SVGID_32_)" fill="#B18B59" d="M291.746094,341.922852
		c-0.199219,0.014648-0.400391,0.022461-0.603516,0.022461h-9.848633v5.55957c0.113281,0.00293,0.227539,0.003906,0.341797,0.003906
		C286.599609,347.508789,290.74707,345.115234,291.746094,341.922852"/>
	<path clip-path="url(#SVGID_32_)" fill="#CFA571" d="M281.635742,287.28418c-0.114258,0-0.228516,0.000977-0.341797,0.003906
		v39.177734c7.47168,0.003906,13.523438,2.196289,13.523438,4.898438s-6.051758,7.066406-13.523438,7.075195v3.505859h9.848633
		c0.203125,0,0.404297-0.007813,0.603516-0.022461c4.103516-0.298828,7.183594-3.619141,6.685547-7.371094l-5.025391-37.862305
		C292.693359,291.324219,287.637695,287.28418,281.635742,287.28418"/>
	<path clip-path="url(#SVGID_32_)" fill="#413830" d="M281.293945,326.46582v1.304688
		c4.342773,0.003906,7.861328,1.279297,7.861328,2.849609c0,1.571289-3.518555,4.109375-7.861328,4.117188v3.702148
		c7.47168-0.008789,13.523438-4.373047,13.523438-7.075195S288.765625,326.469727,281.293945,326.46582"/>
	<path clip-path="url(#SVGID_32_)" fill="#51463C" d="M281.293945,327.770508v6.966797
		c4.342773-0.007813,7.861328-2.545898,7.861328-4.117188C289.155273,329.049805,285.636719,327.774414,281.293945,327.770508"/>
	<path clip-path="url(#SVGID_32_)" fill="#413830" d="M300.167969,300.116211c-0.630859,0-1.141602-0.510742-1.141602-1.141602
		s0.510742-1.142578,1.141602-1.142578s1.142578,0.511719,1.142578,1.142578S300.798828,300.116211,300.167969,300.116211
		 M301.09668,296.833008c-1.775391,0-3.212891,1.438477-3.212891,3.211914c0,1.774414,1.4375,3.211914,3.212891,3.211914
		c1.774414,0,3.211914-1.4375,3.211914-3.211914C304.308594,298.271484,302.871094,296.833008,301.09668,296.833008"/>
	<path clip-path="url(#SVGID_32_)" fill="#E8C8AC" d="M300.167969,297.832031c-0.630859,0-1.141602,0.511719-1.141602,1.142578
		s0.510742,1.141602,1.141602,1.141602s1.142578-0.510742,1.142578-1.141602S300.798828,297.832031,300.167969,297.832031"/>
</g>
</svg>
