<?xml version="1.0" encoding="utf-8"?>
<!-- Generator: Adobe Illustrator 15.0.0, SVG Export Plug-In  -->
<!DOCTYPE svg PUBLIC "-//W3C//DTD SVG 1.1//EN" "http://www.w3.org/Graphics/SVG/1.1/DTD/svg11.dtd" [
	<!ENTITY ns_flows "http://ns.adobe.com/Flows/1.0/">
]>
<svg version="1.1"
	 xmlns="http://www.w3.org/2000/svg" xmlns:xlink="http://www.w3.org/1999/xlink" xmlns:a="http://ns.adobe.com/AdobeSVGViewerExtensions/3.0/"
	 x="0px" y="0px" width="174px" height="174px" viewBox="194.423828 212.788086 174 174"
	 enable-background="new 194.423828 212.788086 174 174" xml:space="preserve">
<defs>
</defs>
<g>
	<defs>
		<path id="SVGID_12_" d="M0,87.211914c0,48.165039,39.045898,87.211914,87.211914,87.211914
			c48.165039,0,87.211914-39.046875,87.211914-87.211914C174.423828,39.045898,135.376953,0,87.211914,0
			C39.045898,0,0,39.045898,0,87.211914"/>
	</defs>
	<clipPath id="SVGID_16_">
		<use xlink:href="#SVGID_12_"  overflow="visible"/>
	</clipPath>
	<g clip-path="url(#SVGID_16_)">
		<defs>
			<polyline id="SVGID_14_" points="47.617188,229.655762 242.288086,229.655762 242.288086,42.061035 47.617188,42.061035 
				47.617188,229.655762 			"/>
		</defs>
		<clipPath id="SVGID_18_">
			<use xlink:href="#SVGID_14_"  overflow="visible"/>
		</clipPath>
		<path clip-path="url(#SVGID_18_)" fill="#EDB4C5" d="M126.173828,165.257813
			c-7.942383,3.972168-16.578125,6.769043-25.672852,8.159668v0.000488
			C109.595703,172.027344,118.231445,169.22998,126.173828,165.257813 M126.214844,165.237305
			c-0.00293,0.001465-0.004883,0.002441-0.006836,0.003418C126.209961,165.239746,126.211914,165.23877,126.214844,165.237305
			 M173.638672,75.456543c0.517578,3.844727,0.785156,7.769043,0.785156,11.755371l0,0
			C174.423828,83.225586,174.15625,79.30127,173.638672,75.456543L173.638672,75.456543"/>
		<path clip-path="url(#SVGID_18_)" fill="#D64C6F" d="M140.756836,42.575684c0.144531,0.310059,0.25293,0.686035,0.328125,1.119629
			c0.000977,0.000488,0.000977,0.001465,0.000977,0.002441c0.000977,0.006348,0.001953,0.013184,0.00293,0.019043
			c0,0.001465,0.000977,0.001953,0.000977,0.003418c0.000977,0.005859,0.001953,0.011719,0.00293,0.017578
			c0,0.002441,0.000977,0.003906,0.000977,0.006348c0.000977,0.004395,0.001953,0.009766,0.001953,0.01416
			c0.000977,0.003418,0.000977,0.006348,0.001953,0.010254c0.000977,0.003418,0.000977,0.006348,0.001953,0.009766
			c0,0.004883,0.000977,0.009766,0.001953,0.014648c0,0.002441,0.000977,0.003906,0.000977,0.006836
			c0.000977,0.005371,0.001953,0.010742,0.00293,0.016602c0,0.001953,0,0.003906,0.000977,0.005859
			c0.000977,0.005859,0.001953,0.012695,0.00293,0.018555c0,0.000977,0,0.001465,0,0.002441
			c0.070313,0.458496,0.105469,0.977539,0.109375,1.547852v0.011719c0,0.056152,0,0.11377,0,0.170898v0.010742
			c-0.003906,0.622559-0.043945,1.303223-0.117188,2.032715c-0.901367,8.970215-6.827148,25.235352-11.99707,30.015137
			c4.426758,8.431152,7.293945,17.378418,7.361328,25.341797c0,0.001953,0,0.00293,0,0.004883
			c0,0.029297,0,0.058105,0.000977,0.087891c0,0.003418,0,0.006836,0,0.010254c0,0.02832,0,0.057129,0,0.085449
			c0,0.00293,0,0.005859,0,0.008789c0,0.029297,0,0.059082,0,0.088379l0,0l0,0l0,0
			c0,14.535156-35.104492,37.708984-49.365234,37.708984c-8.204102,0-27.313477-9.027832-39.206055-20.15625l52.605469,52.60498
			c9.094727-1.390625,17.730469-4.1875,25.672852-8.159668c0.011719-0.005859,0.021484-0.010742,0.03418-0.01709
			c0.001953-0.000977,0.003906-0.001953,0.006836-0.003418c28.583984-14.316895,48.208984-43.879883,48.208984-78.025391
			c0-3.986328-0.267578-7.910645-0.785156-11.755371L140.756836,42.575684"/>
	</g>
</g>
<g>
	<defs>
		<path id="SVGID_8_" d="M0.206055,301.496094c0,48.164063,39.044922,87.210938,87.210938,87.210938
			s87.210938-39.046875,87.210938-87.210938c0-48.16748-39.044922-87.212402-87.210938-87.212402
			S0.206055,253.328613,0.206055,301.496094"/>
	</defs>
	<clipPath id="SVGID_20_">
		<use xlink:href="#SVGID_8_"  overflow="visible"/>
	</clipPath>
	<g clip-path="url(#SVGID_20_)">
		<defs>
			<polyline id="SVGID_10_" points="28.920898,446.904297 244.875977,446.904297 244.875977,258.096191 28.920898,258.096191 
				28.920898,446.904297 			"/>
		</defs>
		<clipPath id="SVGID_22_">
			<use xlink:href="#SVGID_10_"  overflow="visible"/>
		</clipPath>
		<path clip-path="url(#SVGID_22_)" fill="#275172" d="M146.407227,258.464355
			c0.022461,0.039063,0.043945,0.079102,0.06543,0.120605c0,0,0,0.000488,0,0.000977
			c0.003906,0.005859,0.005859,0.01123,0.008789,0.01709c0.000977,0.000977,0.000977,0.000977,0.001953,0.002441
			c0.00293,0.005371,0.004883,0.010254,0.007813,0.016113c0,0.000488,0.000977,0.001465,0.000977,0.002441
			c0.00293,0.005371,0.005859,0.010742,0.007813,0.016113c0.000977,0.000977,0.000977,0.001953,0.001953,0.002441
			c0.001953,0.005371,0.004883,0.01123,0.007813,0.016602c0,0.000977,0.000977,0.001465,0.000977,0.002441
			c0.00293,0.005371,0.004883,0.010742,0.007813,0.016113c0,0.000977,0.000977,0.002441,0.000977,0.00293
			c0.00293,0.005371,0.005859,0.011719,0.008789,0.01709c0,0.000488,0,0.000977,0,0.001465
			c0.00293,0.005859,0.005859,0.012207,0.008789,0.017578c0,0.000977,0,0.001465,0.000977,0.001953
			c0.001953,0.005859,0.004883,0.012207,0.007813,0.018066c0,0.000488,0.000977,0.000977,0.000977,0.001465
			c0.00293,0.006348,0.004883,0.011719,0.007813,0.018066c0,0.000488,0.000977,0.001465,0.000977,0.001465
			c0.035156,0.07959,0.068359,0.161621,0.099609,0.247559v0.000488c0.005859,0.01416,0.010742,0.027832,0.015625,0.04248
			l0.000977,0.000977c0.001953,0.007324,0.004883,0.013672,0.006836,0.020996v0.000488
			c0.00293,0.006836,0.004883,0.01416,0.007813,0.020996c0,0.000488,0,0.000977,0,0.001465
			c0.025391,0.073242,0.049805,0.148438,0.072266,0.226563v0.000977c0.004883,0.015137,0.008789,0.030273,0.013672,0.04541
			c0,0.000977,0,0.001465,0,0.002441c0.001953,0.006836,0.003906,0.013672,0.005859,0.020996
			c0.000977,0.000977,0.000977,0.002441,0.000977,0.003418c0.001953,0.006348,0.003906,0.013184,0.005859,0.02002
			c0,0.001465,0.000977,0.002441,0.000977,0.003906c0.001953,0.006836,0.003906,0.012695,0.005859,0.019531
			c0,0.001465,0,0.00293,0.000977,0.004395c0.001953,0.006348,0.00293,0.013184,0.004883,0.019043
			c0,0.001465,0.000977,0.003906,0.000977,0.005371c0.001953,0.005859,0.003906,0.012695,0.005859,0.019043
			c0,0.001465,0,0.00293,0.000977,0.004395c0.001953,0.006836,0.00293,0.013184,0.004883,0.02002
			c0,0.001465,0.000977,0.00293,0.000977,0.004395c0.001953,0.006836,0.003906,0.014648,0.005859,0.021973
			c0,0.000488,0,0.000977,0,0.001465c0.001953,0.007813,0.003906,0.014648,0.005859,0.022461
			c0,0.000488,0,0.001953,0.000977,0.002441c0.009766,0.041504,0.019531,0.082031,0.029297,0.125c0,0.000488,0,0,0,0.000488
			c0.001953,0.008301,0.003906,0.016113,0.004883,0.024414c0.000977,0.000977,0.000977,0.001953,0.000977,0.00293
			c0.001953,0.007324,0.00293,0.014648,0.004883,0.021973c0.000977,0.002441,0.000977,0.003418,0.000977,0.005371
			c0.001953,0.006836,0.00293,0.012207,0.003906,0.018555c0.000977,0.003418,0.001953,0.006836,0.00293,0.010254
			c0.000977,0.004883,0.001953,0.010254,0.00293,0.015137c0.000977,0.003906,0.000977,0.007324,0.001953,0.01123
			c0.000977,0.004395,0.001953,0.008301,0.00293,0.013184c0.000977,0.004395,0.001953,0.008301,0.00293,0.012695
			s0.001953,0.008301,0.001953,0.012695c0.000977,0.004883,0.001953,0.009277,0.00293,0.01416
			c0.000977,0.00293,0.001953,0.006348,0.001953,0.009766c0.000977,0.005371,0.00293,0.010742,0.003906,0.016113
			c0,0.00293,0.000977,0.006348,0.001953,0.009766c0.000977,0.004883,0.001953,0.010742,0.00293,0.015625
			c0,0.003418,0.000977,0.006348,0.001953,0.009277c0.000977,0.005859,0.001953,0.010742,0.00293,0.016602
			c0,0.00293,0.000977,0.006348,0.001953,0.009766c0.000977,0.005371,0.001953,0.010742,0.00293,0.016602
			c0,0.001953,0.000977,0.004883,0.000977,0.006836c0.000977,0.006348,0.00293,0.013184,0.003906,0.019043
			c0,0.002441,0.000977,0.004395,0.000977,0.006348c0.000977,0.006836,0.001953,0.013184,0.003906,0.02002
			c0,0.001465,0,0.002441,0,0.004395c0.001953,0.007324,0.00293,0.014648,0.003906,0.021973l0.000977,0.000488
			c1.37793,7.827637-6.289063,31.510254-13.295898,39.507324c5.799805,8.496582,9.833008,16.105957,11.485352,19.374512
			c0.549805,1.086914,0.835938,1.693359,0.835938,1.693359l-45.995117,28.378906l-0.905273,0.554688l-9.323242,5.75
			c-0.708984,0.436523-1.509766,0.654297-2.310547,0.654297c-0.198242,0-0.397461-0.012695-0.594727-0.040039
			c-0.598633-0.081055-1.183594-0.286133-1.716797-0.614258l-9.146484-5.638672l-0.175781-0.111328l-0.904297-0.554688
			L29.178711,320.78125l-0.257813,0.138672l67.34375,67.34375c44.010742-4.43457,78.363281-41.59082,78.363281-86.767578
			c0-5.585938-0.524414-11.044922-1.52832-16.338867L146.407227,258.464355"/>
	</g>
</g>
<path fill="#00C9BC" d="M368.485352,301.495117c0,48.166016-39.046875,87.211914-87.212891,87.211914
	c-48.164063,0-87.210938-39.045898-87.210938-87.211914s39.046875-87.211914,87.210938-87.211914
	C329.438477,214.283203,368.485352,253.329102,368.485352,301.495117"/>
<g>
	<defs>
		<path id="SVGID_4_" d="M194.061523,301.495117c0,48.165039,39.045898,87.210938,87.211914,87.210938
			c48.165039,0,87.211914-39.045898,87.211914-87.210938c0-48.166992-39.046875-87.211914-87.211914-87.211914
			C233.107422,214.283203,194.061523,253.328125,194.061523,301.495117"/>
	</defs>
	<clipPath id="SVGID_24_">
		<use xlink:href="#SVGID_4_"  overflow="visible"/>
	</clipPath>
	<g clip-path="url(#SVGID_24_)">
		<defs>
			<polyline id="SVGID_6_" points="221.694336,448.137695 433.594727,448.137695 433.594727,269.351563 221.694336,269.351563 
				221.694336,448.137695 			"/>
		</defs>
		<clipPath id="SVGID_26_">
			<use xlink:href="#SVGID_6_"  overflow="visible"/>
		</clipPath>
		<path clip-path="url(#SVGID_26_)" fill="#43D0D9" d="M368.305664,295.855957
			c0.119141,1.863281,0.179688,3.745605,0.179688,5.63916l0,0C368.485352,299.601563,368.424805,297.719238,368.305664,295.855957
			L368.305664,295.855957"/>
		<path clip-path="url(#SVGID_26_)" fill="#00A4A0" d="M341.802734,269.352539l-0.145508,0.06543
			c0.017578,0.028809,0.03418,0.058105,0.050781,0.087891c2.438477,4.429199-7.066406,24.522461-13.473633,34.417969
			c7.858398,10.03125,12.567383,18.699219,12.640625,18.833984v0.000977c0.000977,0,0.000977,0,0.000977,0.000977l0,0l0,0l0,0l0,0
			l0,0c0,0-0.014648,0.015625-0.043945,0.045898c-1.209961,1.270508-27.401367,28.364258-59.532227,28.364258l-0.032227-0.000977
			c-30.829102-0.016602-56.179688-24.963867-59.235352-28.088867l-0.337891,0.151367l65.290039,65.291016
			c45.501953-2.943359,81.500977-40.782227,81.500977-87.027344c0-1.893555-0.060547-3.775879-0.179688-5.63916
			L341.802734,269.352539"/>
	</g>
</g>
<path fill="#C7DBF7" d="M237.146484,307.855469c-5.803711-6.817383-19.145508-33.194336-16.30957-38.349609
	c2.469727-4.484375,19.466797-2.119141,32.169922,3.93457c7.287109,3.472656,13.15625,7.269531,17.537109,10.625
	C259.411133,291.995117,248.27832,299.924805,237.146484,307.855469"/>
<path fill="#99B6E0" d="M239.474609,306.197266c-5.235352-7.439453-12.199219-23.74707-11.317383-27.049805
	c2.59375-1.707031,14.28125-0.799805,24.158203,3.520508c4.081055,1.785156,8.001953,3.895508,11.507813,6.18457
	L239.474609,306.197266z"/>
<path fill="#C7DBF7" d="M325.399414,307.855469c5.804688-6.817383,19.146484-33.194336,16.308594-38.349609
	c-2.46875-4.484375-19.464844-2.119141-32.167969,3.93457c-7.288086,3.472656-13.157227,7.269531-17.537109,10.625
	C303.135742,291.995117,314.267578,299.924805,325.399414,307.855469"/>
<path fill="#99B6E0" d="M323.071289,306.197266c5.235352-7.439453,12.199219-23.74707,11.317383-27.049805
	c-2.594727-1.707031-14.28125-0.799805-24.158203,3.520508c-4.081055,1.785156-8.001953,3.895508-11.506836,6.18457
	L323.071289,306.197266"/>
<path fill="#C7DBF7" d="M340.875977,322.759766c0,0-26.673828,28.40918-59.576172,28.40918
	c-32.90332,0-59.576172-28.40918-59.576172-28.40918s26.672852-49.298828,59.576172-49.298828
	C314.202148,273.460938,340.875977,322.759766,340.875977,322.759766"/>
<path fill="#7A99C4" d="M273.208984,300.902344c-17.135742,4.3125-31.00293,20.967773-36.000977,27.665039
	c-1.181641,1.582031-0.841797,3.808594,0.736328,4.994141c6.024414,4.529297,21.360352,14.62793,39.712891,15.854492v-45.03125
	C277.657227,302.056641,275.46582,300.334961,273.208984,300.902344"/>
<path fill="#7A99C4" d="M284.942383,349.416016c18.351563-1.226563,33.6875-11.326172,39.710938-15.854492
	c1.578125-1.185547,1.917969-3.412109,0.738281-4.993164c-4.998047-6.698242-18.867188-23.353516-36.001953-27.665039
	c-2.256836-0.568359-4.447266,1.15332-4.447266,3.481445V349.416016"/>
<path fill="#FFFFFF" d="M304.741211,339.755859c0,0-10.495117,10.021484-23.441406,10.021484
	c-12.947266,0-23.442383-10.021484-23.442383-10.021484s10.495117-17.387695,23.442383-17.387695
	C294.246094,322.368164,304.741211,339.755859,304.741211,339.755859"/>
<path fill="#474747" d="M290.499023,336.807617c0,2.329102-4.119141,4.216797-9.199219,4.216797
	c-5.082031,0-9.201172-1.887695-9.201172-4.216797s4.119141-6.900391,9.201172-6.900391
	C286.379883,329.907227,290.499023,334.478516,290.499023,336.807617"/>
<path fill="#616161" d="M287.311523,334.942383c0,1.395508-2.692383,2.527344-6.011719,2.527344
	c-3.320313,0-6.012695-1.131836-6.012695-2.527344c0-1.396484,2.692383-4.137695,6.012695-4.137695
	C284.619141,330.804688,287.311523,333.545898,287.311523,334.942383"/>
<path fill="#474747" d="M292.631836,339.512695c-0.000977,0.799805-0.276367,1.568359-0.816406,2.305664
	c-0.806641,1.104492-2.224609,2.108398-4.052734,2.818359c-1.828125,0.712891-4.057617,1.135742-6.462891,1.135742
	c-3.207031,0.001953-6.103516-0.754883-8.147461-1.936523c-1.023438-0.588867-1.830078-1.28125-2.369141-2.017578
	c-0.540039-0.738281-0.81543-1.505859-0.816406-2.305664c0-0.357422-0.290039-0.647461-0.647461-0.647461
	s-0.647461,0.290039-0.647461,0.647461c-0.000977,1.108398,0.394531,2.157227,1.066406,3.072266
	c1.012695,1.374023,2.632813,2.479492,4.62793,3.258789c1.99707,0.777344,4.376953,1.223633,6.933594,1.223633
	c3.40918-0.001953,6.50293-0.791016,8.793945-2.109375c1.145508-0.661133,2.092773-1.456055,2.765625-2.373047
	c0.672852-0.915039,1.068359-1.963867,1.067383-3.072266c0-0.357422-0.290039-0.647461-0.647461-0.647461
	S292.631836,339.155273,292.631836,339.512695L292.631836,339.512695"/>
<path fill="#474747" d="M267.458008,319.681641c0,2.011719-1.630859,3.642578-3.643555,3.642578
	c-2.010742,0-3.641602-1.630859-3.641602-3.642578c0-2.012695,1.630859-3.643555,3.641602-3.643555
	C265.827148,316.038086,267.458008,317.668945,267.458008,319.681641"/>
<path fill="#FFFFFF" d="M264.057617,318.466797c0,0.71582-0.580078,1.294922-1.294922,1.294922
	s-1.294922-0.579102-1.294922-1.294922c0-0.714844,0.580078-1.294922,1.294922-1.294922
	S264.057617,317.751953,264.057617,318.466797"/>
<path fill="#474747" d="M302.426758,319.681641c0,2.011719-1.630859,3.642578-3.643555,3.642578
	c-2.010742,0-3.641602-1.630859-3.641602-3.642578c0-2.012695,1.630859-3.643555,3.641602-3.643555
	C300.795898,316.038086,302.426758,317.668945,302.426758,319.681641"/>
<path fill="#FFFFFF" d="M299.026367,318.466797c0,0.71582-0.580078,1.294922-1.294922,1.294922
	s-1.294922-0.579102-1.294922-1.294922c0-0.714844,0.580078-1.294922,1.294922-1.294922
	S299.026367,317.751953,299.026367,318.466797"/>
<g>
	<defs>
		<polyline id="SVGID_3_" points="281.237305,351.169922 342.099609,351.169922 342.099609,267.178711 281.237305,267.178711 
			281.237305,351.169922 		"/>
	</defs>
	<clipPath id="SVGID_28_">
		<use xlink:href="#SVGID_3_"  overflow="visible"/>
	</clipPath>
	<path clip-path="url(#SVGID_28_)" fill="#00B1B2" d="M323.114258,268.700684
		c-4.532227,1.081055-9.296875,2.701172-13.574219,4.739746l0,0l0,0
		C313.817383,271.401855,318.582031,269.781738,323.114258,268.700684 M323.316406,268.652344
		c-0.0625,0.015137-0.125,0.029785-0.188477,0.044922C323.19043,268.682129,323.253906,268.666992,323.316406,268.652344"/>
	<path clip-path="url(#SVGID_28_)" fill="#009198" d="M340.832031,322.805664
		c-1.209961,1.270508-27.401367,28.363281-59.532227,28.363281c-0.009766,0-0.022461,0-0.032227,0l0.032227,0.000977
		C313.430664,351.169922,339.62207,324.076172,340.832031,322.805664 M340.875977,322.759766L340.875977,322.759766
		L340.875977,322.759766 M340.875,322.757813v0.000977V322.757813"/>
	<path clip-path="url(#SVGID_28_)" fill="#A6C1EA" d="M334.472656,267.178711h-0.195313
		c-3.128906,0.010254-6.949219,0.529785-10.960938,1.473633c-0.0625,0.014648-0.125977,0.029785-0.188477,0.044922
		c-0.004883,0.000977-0.008789,0.001953-0.013672,0.003418c-4.532227,1.081055-9.296875,2.701172-13.574219,4.739746l0,0
		c-3.485352,1.661133-6.635742,3.39502-9.462891,5.119629c2.758789,1.466797,5.426758,3.189453,7.990234,5.091797
		c0.714844-0.337891,1.436523-0.666016,2.163086-0.983887c6.798828-2.973633,14.455078-4.330566,19.413086-4.330566
		c2.245117,0,3.936523,0.27832,4.745117,0.810059c0.717773,2.689453-3.765625,13.999512-8.28125,22.125
		c0.731445,0.889648,1.44043,1.775391,2.125,2.649414c6.407227-9.892578,15.914063-29.985352,13.475586-34.415039
		C340.834961,267.921387,338.144531,267.191895,334.472656,267.178711"/>
	<path clip-path="url(#SVGID_28_)" fill="#80A1D5" d="M329.643555,278.337402c-4.958008,0-12.614258,1.356934-19.413086,4.330566
		c-0.726563,0.317871-1.448242,0.645996-2.163086,0.983887c6.883789,5.106934,13.005859,11.497559,18.040039,17.620605
		c4.515625-8.125488,8.999023-19.435547,8.28125-22.125C333.580078,278.615723,331.888672,278.337402,329.643555,278.337402"/>
	<path clip-path="url(#SVGID_28_)" fill="#A6C1EA" d="M281.299805,273.461914l-0.0625,0.001953v48.904297
		c0.020508,0,0.041992,0,0.0625,0c1.239258,0,2.455078,0.15918,3.642578,0.447266v-18.430664
		c0-2.024414,1.657227-3.59082,3.573242-3.59082c0.287109,0,0.580078,0.035156,0.874023,0.109375
		c17.134766,4.311523,31.003906,20.966797,36.001953,27.665039c1.179688,1.581055,0.839844,3.807617-0.738281,4.993164
		c-5.889648,4.427734-20.679688,14.180664-38.488281,15.759766c-1.569336,0.289063-3.197266,0.456055-4.865234,0.456055
		c-0.020508,0-0.041992,0-0.0625,0v1.390625l0.030273,0.000977c0.009766,0,0.022461,0,0.032227,0
		c32.130859,0,58.322266-27.092773,59.532227-28.363281c0.029297-0.030273,0.043945-0.045898,0.043945-0.045898l0,0l0,0l0,0
		c0-0.000977,0-0.000977-0.000977-0.000977v-0.000977c-0.074219-0.136719-4.792969-8.804688-12.646484-18.830078
		c0.000977-0.001953,0.00293-0.003906,0.003906-0.005859c-0.68457-0.874023-1.393555-1.759766-2.125-2.649414
		c-5.03418-6.123047-11.15625-12.513672-18.040039-17.620605c-2.563477-1.902344-5.231445-3.625-7.990234-5.091797
		c-0.006836,0.003906-0.013672,0.008301-0.020508,0.012207C294.157227,275.438477,287.855469,273.461914,281.299805,273.461914"/>
	<path clip-path="url(#SVGID_28_)" fill="#6687BA" d="M298.783203,323.324219c-2.010742,0-3.641602-1.630859-3.641602-3.642578
		c0-2.012695,1.630859-3.643555,3.641602-3.643555c2.012695,0,3.643555,1.630859,3.643555,3.643555
		C302.426758,321.693359,300.795898,323.324219,298.783203,323.324219 M288.515625,300.793945
		c-1.916016,0-3.573242,1.566406-3.573242,3.59082v18.430664c11.21582,2.72168,19.798828,16.94043,19.798828,16.94043
		s-7.964844,7.605469-18.576172,9.56543c17.808594-1.579102,32.598633-11.332031,38.488281-15.759766
		c1.578125-1.185547,1.917969-3.412109,0.738281-4.993164c-4.998047-6.698242-18.867188-23.353516-36.001953-27.665039
		C289.095703,300.829102,288.802734,300.793945,288.515625,300.793945"/>
	<path clip-path="url(#SVGID_28_)" fill="#D5E1F2" d="M281.299805,322.368164c-0.020508,0-0.041992,0-0.0625,0v7.539063
		c0.020508,0,0.041992,0,0.0625,0c5.080078,0,9.199219,4.571289,9.199219,6.900391s-4.119141,4.216797-9.199219,4.216797
		c-0.020508,0-0.041992,0-0.0625,0v4.748047c0.017578,0,0.035156,0,0.052734,0c0.00293,0,0.006836,0,0.009766,0
		c2.405273,0,4.634766-0.422852,6.462891-1.135742c1.828125-0.709961,3.246094-1.713867,4.052734-2.818359
		c0.540039-0.737305,0.81543-1.505859,0.816406-2.305664l0,0c0-0.357422,0.290039-0.647461,0.647461-0.647461
		s0.647461,0.290039,0.647461,0.647461c0.000977,1.108398-0.394531,2.157227-1.067383,3.072266
		c-0.672852,0.916992-1.620117,1.711914-2.765625,2.373047c-2.291016,1.318359-5.384766,2.107422-8.793945,2.109375
		c-0.020508,0-0.041992,0-0.0625,0v2.709961c0.020508,0,0.041992,0,0.0625,0c1.667969,0,3.295898-0.166992,4.865234-0.456055
		c10.611328-1.959961,18.576172-9.56543,18.576172-9.56543s-8.583008-14.21875-19.798828-16.94043
		C283.754883,322.527344,282.539063,322.368164,281.299805,322.368164"/>
	<path clip-path="url(#SVGID_28_)" fill="#3B3F43" d="M281.299805,329.907227c-0.020508,0-0.041992,0-0.0625,0v0.897461
		c0.020508,0,0.041992,0,0.0625,0c3.319336,0,6.011719,2.741211,6.011719,4.137695c0,1.395508-2.692383,2.527344-6.011719,2.527344
		c-0.020508,0-0.041992,0-0.0625,0v3.554688c0.020508,0,0.041992,0,0.0625,0c5.080078,0,9.199219-1.887695,9.199219-4.216797
		S286.379883,329.907227,281.299805,329.907227"/>
	<path clip-path="url(#SVGID_28_)" fill="#51565C" d="M281.299805,330.804688c-0.020508,0-0.041992,0-0.0625,0v6.665039
		c0.020508,0,0.041992,0,0.0625,0c3.319336,0,6.011719-1.131836,6.011719-2.527344
		C287.311523,333.545898,284.619141,330.804688,281.299805,330.804688"/>
	<path clip-path="url(#SVGID_28_)" fill="#3B3F43" d="M293.279297,338.865234c-0.357422,0-0.647461,0.290039-0.647461,0.647461l0,0
		c-0.000977,0.799805-0.276367,1.568359-0.816406,2.305664c-0.806641,1.104492-2.224609,2.108398-4.052734,2.818359
		c-1.828125,0.712891-4.057617,1.135742-6.462891,1.135742c-0.00293,0-0.006836,0-0.009766,0c-0.017578,0-0.035156,0-0.052734,0
		v1.294922c0.020508,0,0.041992,0,0.0625,0c3.40918-0.001953,6.50293-0.791016,8.793945-2.109375
		c1.145508-0.661133,2.092773-1.456055,2.765625-2.373047c0.672852-0.915039,1.068359-1.963867,1.067383-3.072266
		C293.926758,339.155273,293.636719,338.865234,293.279297,338.865234"/>
	<path clip-path="url(#SVGID_28_)" fill="#3B3F43" d="M297.731445,319.761719c-0.714844,0-1.294922-0.579102-1.294922-1.294922
		c0-0.714844,0.580078-1.294922,1.294922-1.294922s1.294922,0.580078,1.294922,1.294922
		C299.026367,319.182617,298.446289,319.761719,297.731445,319.761719 M298.783203,316.038086
		c-2.010742,0-3.641602,1.630859-3.641602,3.643555c0,2.011719,1.630859,3.642578,3.641602,3.642578
		c2.012695,0,3.643555-1.630859,3.643555-3.642578C302.426758,317.668945,300.795898,316.038086,298.783203,316.038086"/>
	<path clip-path="url(#SVGID_28_)" fill="#D5E1F2" d="M297.731445,317.171875c-0.714844,0-1.294922,0.580078-1.294922,1.294922
		c0,0.71582,0.580078,1.294922,1.294922,1.294922s1.294922-0.579102,1.294922-1.294922
		C299.026367,317.751953,298.446289,317.171875,297.731445,317.171875"/>
</g>
<g>
	<defs>
		<path id="SVGID_1_" d="M194.423828,90.262695c0,48.165039,39.044922,87.211914,87.210938,87.211914
			s87.210938-39.046875,87.210938-87.211914c0-48.166016-39.044922-87.211914-87.210938-87.211914
			S194.423828,42.09668,194.423828,90.262695"/>
	</defs>
	<clipPath id="SVGID_30_">
		<use xlink:href="#SVGID_1_"  overflow="visible"/>
	</clipPath>
	<g clip-path="url(#SVGID_30_)">
		<defs>
			<polyline id="SVGID_2_" points="226.576172,237.008301 439.09375,237.008301 439.09375,45.036621 226.576172,45.036621 
				226.576172,237.008301 			"/>
		</defs>
		<clipPath id="SVGID_32_">
			<use xlink:href="#SVGID_2_"  overflow="visible"/>
		</clipPath>
		<path clip-path="url(#SVGID_32_)" fill="#3B9CED" d="M338.429688,45.036621L338.429688,45.036621l-0.003906,0.002441
			c0.051758,0.057129,0.099609,0.116699,0.145508,0.177734l0,0c0.991211,1.334961,0.912109,4.969238,0.125977,9.644531
			c-0.000977,0.005859-0.001953,0.013184-0.00293,0.019043c-0.001953,0.009277-0.00293,0.01709-0.004883,0.025879
			c-1.947266,11.542969-8.183594,29.388672-13.271484,34.666992c6.266602,13.138672,11.358398,25.479492,11.358398,26.23291
			h-0.000977v0.000488c-0.165039,0-0.339844,0-0.508789,0.006836c-0.041992,0.001953-0.083008,0.003906-0.124023,0.006836l0,0
			c-4.207031,0.06543-8.02832,0.681152-11.548828,1.669922c-0.001953,0.000488-0.001953,0.000977-0.003906,0.000977
			c-0.008789,0.002441-0.016602,0.004883-0.025391,0.007324c-0.03125,0.008789-0.064453,0.018066-0.095703,0.027344l0,0
			c-8.535156,2.423828-15.306641,7.039063-21.552734,11.318359c-4.427734,3.03418-8.59375,5.899902-12.93457,7.696289v0.42041l0,0
			c0,0.09375-0.001953,0.186523-0.004883,0.279297c-0.05957,1.793457-0.692383,3.441895-1.72168,4.76709
			c-0.00293,0.004395-0.006836,0.008789-0.009766,0.012695c-0.001953,0.002441-0.003906,0.004395-0.004883,0.006836
			c-1.507813,1.930664-3.857422,3.171387-6.496094,3.171387c-4.548828,0-8.236328-3.687988-8.236328-8.237305v-0.374512
			c-13.620117-5.339844-28.02832-20.353516-46.299805-20.766113c-0.203125-0.01416-0.420898-0.01416-0.625-0.01416
			l61.438477,61.438477c45.182617-3.271973,80.824219-40.96582,80.824219-86.981934
			c0-5.58252-0.525391-11.046875-1.527344-16.337891L338.429688,45.036621"/>
	</g>
</g>
</svg>
