<?xml version="1.0" encoding="utf-8"?>
<!-- Generator: Adobe Illustrator 15.0.0, SVG Export Plug-In  -->
<!DOCTYPE svg PUBLIC "-//W3C//DTD SVG 1.1//EN" "http://www.w3.org/Graphics/SVG/1.1/DTD/svg11.dtd" [
	<!ENTITY ns_flows "http://ns.adobe.com/Flows/1.0/">
]>
<svg version="1.1"
	 xmlns="http://www.w3.org/2000/svg" xmlns:xlink="http://www.w3.org/1999/xlink" xmlns:a="http://ns.adobe.com/AdobeSVGViewerExtensions/3.0/"
	 x="0px" y="0px" width="174px" height="174px" viewBox="194.423828 0 174 174" enable-background="new 194.423828 0 174 174"
	 xml:space="preserve">
<defs>
</defs>
<g>
	<defs>
		<path id="SVGID_8_" d="M0,87.211914c0,48.165039,39.045898,87.211914,87.211914,87.211914
			c48.165039,0,87.211914-39.046875,87.211914-87.211914C174.423828,39.045898,135.376953,0,87.211914,0
			C39.045898,0,0,39.045898,0,87.211914"/>
	</defs>
	<clipPath id="SVGID_12_">
		<use xlink:href="#SVGID_8_"  overflow="visible"/>
	</clipPath>
	<g clip-path="url(#SVGID_12_)">
		<defs>
			<polyline id="SVGID_10_" points="47.617188,229.655762 242.288086,229.655762 242.288086,42.061035 47.617188,42.061035 
				47.617188,229.655762 			"/>
		</defs>
		<clipPath id="SVGID_14_">
			<use xlink:href="#SVGID_10_"  overflow="visible"/>
		</clipPath>
		<path clip-path="url(#SVGID_14_)" fill="#EDB4C5" d="M126.173828,165.257813
			c-7.942383,3.972168-16.578125,6.769043-25.672852,8.159668v0.000488
			C109.595703,172.027344,118.231445,169.22998,126.173828,165.257813 M126.214844,165.237305
			c-0.00293,0.001465-0.004883,0.002441-0.006836,0.003418C126.209961,165.239746,126.211914,165.23877,126.214844,165.237305
			 M173.638672,75.456543c0.517578,3.844727,0.785156,7.769043,0.785156,11.755371l0,0
			C174.423828,83.225586,174.15625,79.30127,173.638672,75.456543L173.638672,75.456543"/>
		<path clip-path="url(#SVGID_14_)" fill="#D64C6F" d="M140.756836,42.575684c0.144531,0.310059,0.25293,0.686035,0.328125,1.119629
			c0.000977,0.000488,0.000977,0.001465,0.000977,0.002441c0.000977,0.006348,0.001953,0.013184,0.00293,0.019043
			c0,0.001465,0.000977,0.001953,0.000977,0.003418c0.000977,0.005859,0.001953,0.011719,0.00293,0.017578
			c0,0.002441,0.000977,0.003906,0.000977,0.006348c0.000977,0.004395,0.001953,0.009766,0.001953,0.01416
			c0.000977,0.003418,0.000977,0.006348,0.001953,0.010254c0.000977,0.003418,0.000977,0.006348,0.001953,0.009766
			c0,0.004883,0.000977,0.009766,0.001953,0.014648c0,0.002441,0.000977,0.003906,0.000977,0.006836
			c0.000977,0.005371,0.001953,0.010742,0.00293,0.016602c0,0.001953,0,0.003906,0.000977,0.005859
			c0.000977,0.005859,0.001953,0.012695,0.00293,0.018555c0,0.000977,0,0.001465,0,0.002441
			c0.070313,0.458496,0.105469,0.977539,0.109375,1.547852v0.011719c0,0.056152,0,0.11377,0,0.170898v0.010742
			c-0.003906,0.622559-0.043945,1.303223-0.117188,2.032715c-0.901367,8.970215-6.827148,25.235352-11.99707,30.015137
			c4.426758,8.431152,7.293945,17.378418,7.361328,25.341797c0,0.001953,0,0.00293,0,0.004883
			c0,0.029297,0,0.058105,0.000977,0.087891c0,0.003418,0,0.006836,0,0.010254c0,0.02832,0,0.057129,0,0.085449
			c0,0.00293,0,0.005859,0,0.008789c0,0.029297,0,0.059082,0,0.088379l0,0l0,0l0,0
			c0,14.535156-35.104492,37.708984-49.365234,37.708984c-8.204102,0-27.313477-9.027832-39.206055-20.15625l52.605469,52.60498
			c9.094727-1.390625,17.730469-4.1875,25.672852-8.159668c0.011719-0.005859,0.021484-0.010742,0.03418-0.01709
			c0.001953-0.000977,0.003906-0.001953,0.006836-0.003418c28.583984-14.316895,48.208984-43.879883,48.208984-78.025391
			c0-3.986328-0.267578-7.910645-0.785156-11.755371L140.756836,42.575684"/>
	</g>
</g>
<path fill="#54C6FF" d="M368.84668,90.262695c0,48.166016-39.045898,87.211914-87.211914,87.211914
	s-87.210938-39.045898-87.210938-87.211914S233.46875,3.050781,281.634766,3.050781S368.84668,42.09668,368.84668,90.262695"/>
<g>
	<defs>
		<path id="SVGID_4_" d="M194.423828,90.262695c0,48.165039,39.044922,87.211914,87.210938,87.211914
			s87.210938-39.046875,87.210938-87.211914c0-48.166016-39.044922-87.211914-87.210938-87.211914
			S194.423828,42.09668,194.423828,90.262695"/>
	</defs>
	<clipPath id="SVGID_16_">
		<use xlink:href="#SVGID_4_"  overflow="visible"/>
	</clipPath>
	<g clip-path="url(#SVGID_16_)">
		<defs>
			<polyline id="SVGID_6_" points="226.576172,237.008301 439.09375,237.008301 439.09375,45.036621 226.576172,45.036621 
				226.576172,237.008301 			"/>
		</defs>
		<clipPath id="SVGID_18_">
			<use xlink:href="#SVGID_6_"  overflow="visible"/>
		</clipPath>
		<path clip-path="url(#SVGID_18_)" fill="#3B9CED" d="M338.429688,45.036621L338.429688,45.036621l-0.003906,0.002441
			c0.051758,0.057129,0.099609,0.116699,0.145508,0.177734l0,0c0.991211,1.334961,0.912109,4.969238,0.125977,9.644531
			c-0.000977,0.005859-0.001953,0.013184-0.00293,0.019043c-0.001953,0.009277-0.00293,0.01709-0.004883,0.025879
			c-1.947266,11.542969-8.183594,29.388672-13.271484,34.666992c6.266602,13.138672,11.358398,25.479492,11.358398,26.23291
			h-0.000977v0.000488c-0.165039,0-0.339844,0-0.508789,0.006836c-0.041992,0.001953-0.083008,0.003906-0.124023,0.006836l0,0
			c-4.207031,0.06543-8.02832,0.681152-11.548828,1.669922c-0.001953,0.000488-0.001953,0.000977-0.003906,0.000977
			c-0.008789,0.002441-0.016602,0.004883-0.025391,0.007324c-0.03125,0.008789-0.064453,0.018066-0.095703,0.027344l0,0
			c-8.535156,2.423828-15.306641,7.039063-21.552734,11.318359c-4.427734,3.03418-8.59375,5.899902-12.93457,7.696289v0.42041l0,0
			c0,0.09375-0.001953,0.186523-0.004883,0.279297c-0.05957,1.793457-0.692383,3.441895-1.72168,4.76709
			c-0.00293,0.004395-0.006836,0.008789-0.009766,0.012695c-0.001953,0.002441-0.003906,0.004395-0.004883,0.006836
			c-1.507813,1.930664-3.857422,3.171387-6.496094,3.171387c-4.548828,0-8.236328-3.687988-8.236328-8.237305v-0.374512
			c-13.620117-5.339844-28.02832-20.353516-46.299805-20.766113c-0.203125-0.01416-0.420898-0.01416-0.625-0.01416
			l61.438477,61.438477c45.182617-3.271973,80.824219-40.96582,80.824219-86.981934
			c0-5.58252-0.525391-11.046875-1.527344-16.337891L338.429688,45.036621"/>
	</g>
</g>
<path fill="#6C7B82" d="M238.092773,89.814941c-7.18457-6.935059-16.868164-39.916016-13.395508-44.598145
	c3.023438-4.074707,19.397461,0.518066,31.0625,8.15918c6.691406,4.383789,11.947266,8.89502,15.800781,12.774902
	C259.570313,72.451172,250.083008,83.515137,238.092773,89.814941"/>
<path fill="#CBD3D6" d="M240.695313,88.447754c-9.396484-12.466797-13.519531-34.976074-12.130859-38.674805
	c3.137695-1.492188,16.266602,1.856934,26.942383,8.851074c4.412109,2.888672,8.602539,6.12793,12.303711,9.496582
	L240.695313,88.447754z"/>
<path fill="#6C7B82" d="M325.176758,89.814941c7.18457-6.935059,16.869141-39.916016,13.394531-44.598145
	c-3.022461-4.074707-19.396484,0.518066-31.061523,8.15918c-6.691406,4.383789-11.947266,8.89502-15.800781,12.774902
	C303.699219,72.451172,313.186523,83.515137,325.176758,89.814941"/>
<path fill="#CBD3D6" d="M322.574219,88.447754c9.396484-12.466797,13.519531-34.976074,12.130859-38.674805
	c-3.137695-1.492188-16.266602,1.856934-26.942383,8.851074c-4.412109,2.888672-8.603516,6.12793-12.302734,9.496582
	L322.574219,88.447754"/>
<path fill="#6C7B82" d="M336.776367,115.806152c-0.207031,0-0.427734,0-0.634766,0.01416
	c-24.766602,0.38623-36.145508,19.831055-51.766602,22.351074c-0.880859,0.151855-1.791016,0.221191-2.700195,0.221191
	c-0.895508,0-1.803711-0.083008-2.700195-0.234375c-15.275391-2.604004-31.035156-21.869629-51.766602-22.337891
	c-0.206055-0.01416-0.426758-0.01416-0.633789-0.01416c0-3.787598,19.836914-48.116699,29.396484-56.932617h51.40918
	C316.939453,67.689453,336.776367,114.318359,336.776367,115.806152"/>
<path fill="#CBD3D6" d="M313.142578,105.73291c1.798828-2.82959,2.856445-6.178711,2.856445-9.780762
	c0-10.094238-8.183594-18.275879-18.276367-18.275879c-6.923828,0-12.946289,3.851074-16.046875,9.526855
	c-3.101563-5.675781-9.124023-9.526855-16.048828-9.526855c-10.091797,0-18.275391,8.181641-18.275391,18.275879
	c0,3.602051,1.056641,6.951172,2.855469,9.780762c-9.009766,0.24707-17.138672,4.054199-22.998047,10.087402
	c20.730469,0.467773,36.490234,19.733887,51.766602,22.337891c0.895508,0.151855,1.803711,0.233887,2.700195,0.233887
	c0.90918,0,1.817383-0.068848,2.700195-0.219727c15.620117-2.521484,26.999023-21.966309,51.766602-22.352051
	C330.282227,109.787109,322.15332,105.97998,313.142578,105.73291"/>
<path fill="#F5BABF" d="M281.744141,145.198242c-4.548828,0-8.236328-3.687988-8.236328-8.237305v-12.528809h16.473633v12.528809
	C289.981445,141.510254,286.292969,145.198242,281.744141,145.198242"/>
<path fill="#F58790" d="M280.914063,124.98584v17.443848c0,0.458984,0.371094,0.830566,0.830078,0.830566
	s0.830078-0.371582,0.830078-0.830566V124.98584c0-0.458496-0.371094-0.830566-0.830078-0.830566
	S280.914063,124.527344,280.914063,124.98584"/>
<path fill="#E7F1F5" d="M283.789063,122.078125c0,3.723145-4.182617,6.741211-9.342773,6.741211
	c-5.161133,0-9.34375-3.018066-9.34375-6.741211c0-3.722656,4.182617-6.740723,9.34375-6.740723
	C279.606445,115.337402,283.789063,118.355469,283.789063,122.078125"/>
<path fill="#E7F1F5" d="M298.248047,122.078125c0,3.723145-4.183594,6.741211-9.342773,6.741211
	c-5.161133,0-9.344727-3.018066-9.344727-6.741211c0-3.722656,4.183594-6.740723,9.344727-6.740723
	C294.064453,115.337402,298.248047,118.355469,298.248047,122.078125"/>
<path fill="#474747" d="M291.504883,115.848633c0,1.605957-6.09082,4.291992-9.829102,4.291992
	c-3.460938,0-9.830078-2.686035-9.830078-4.291992s4.400391-2.907227,9.830078-2.907227
	C287.103516,112.941406,291.504883,114.242676,291.504883,115.848633"/>
<path fill="#B3B3B3" d="M286.568359,115.102051c0,0.749023-3.032227,2.000977-4.893555,2.000977
	c-1.722656,0-4.892578-1.251953-4.892578-2.000977s2.19043-1.35498,4.892578-1.35498S286.568359,114.353027,286.568359,115.102051"
	/>
<path fill="#418ED1" d="M297.886719,95.356934c-3.979492,0.760254-6.737305,4.255371-6.160156,7.806152
	c0.208008,1.280273,0.832031,2.384277,1.71875,3.248047c1.50293-1.220215,3.520508-2.165039,5.816406-2.604004
	c2.296875-0.438965,4.492188-0.297852,6.289063,0.291016c0.560547-1.140137,0.797852-2.408203,0.588867-3.687988
	C305.561523,96.859375,301.867188,94.597168,297.886719,95.356934"/>
<g>
	<defs>
		<path id="SVGID_3_" d="M297.886719,95.356934c-3.979492,0.760742-6.739258,4.254883-6.160156,7.806641
			c0.208008,1.279297,0.832031,2.383301,1.717773,3.24707c1.50293-1.219727,3.521484-2.165039,5.818359-2.604004
			c2.295898-0.437988,4.491211-0.296875,6.288086,0.291992c0.55957-1.141113,0.797852-2.408691,0.589844-3.687988
			c-0.50293-3.087891-3.362305-5.200684-6.71582-5.200684C298.921875,95.209961,298.407227,95.257813,297.886719,95.356934"/>
	</defs>
	<clipPath id="SVGID_20_">
		<use xlink:href="#SVGID_3_"  overflow="visible"/>
	</clipPath>
	<path clip-path="url(#SVGID_20_)" fill="#474747" d="M303.242188,100.332031
		c0.429688,2.638184-1.196289,5.152832-3.631836,5.618164c-2.433594,0.464844-4.755859-1.296387-5.185547-3.934082
		c-0.428711-2.637207,1.197266-5.15332,3.631836-5.618164S302.813477,97.693848,303.242188,100.332031"/>
	<path clip-path="url(#SVGID_20_)" fill="#FFFFFF" d="M298.076172,98.66748c0.198242,1.216797-0.551758,2.37793-1.675781,2.592773
		s-2.196289-0.598145-2.394531-1.815918c-0.198242-1.217285,0.551758-2.37793,1.675781-2.593262
		C296.805664,96.637207,297.87793,97.450195,298.076172,98.66748"/>
</g>
<path fill="#418ED1" d="M265.462891,95.356934c-3.979492-0.759766-7.673828,1.502441-8.251953,5.053223
	c-0.208984,1.279785,0.029297,2.547852,0.588867,3.687988c1.796875-0.588867,3.991211-0.72998,6.288086-0.291016
	s4.314453,1.383789,5.818359,2.604004c0.884766-0.86377,1.509766-1.967773,1.716797-3.248047
	C272.201172,99.612305,269.443359,96.117188,265.462891,95.356934"/>
<g>
	<defs>
		<path id="SVGID_2_" d="M257.209961,100.410645c-0.208008,1.279297,0.030273,2.546875,0.589844,3.687988
			c1.796875-0.588867,3.992188-0.72998,6.288086-0.291992c2.296875,0.438965,4.314453,1.384277,5.818359,2.604004
			c0.885742-0.86377,1.509766-1.967773,1.717773-3.24707c0.577148-3.551758-2.180664-7.045898-6.161133-7.806641
			c-0.519531-0.099121-1.03418-0.146973-1.538086-0.146973C260.570313,95.209961,257.712891,97.322754,257.209961,100.410645"/>
	</defs>
	<clipPath id="SVGID_22_">
		<use xlink:href="#SVGID_2_"  overflow="visible"/>
	</clipPath>
	<path clip-path="url(#SVGID_22_)" fill="#474747" d="M268.925781,102.016113
		c-0.429688,2.638184-2.750977,4.399414-5.185547,3.934082c-2.435547-0.464844-4.061523-2.980957-3.632813-5.617676
		c0.429688-2.638184,2.751953-4.399414,5.185547-3.934082C267.728516,96.863281,269.354492,99.378418,268.925781,102.016113"/>
	<path clip-path="url(#SVGID_22_)" fill="#FFFFFF" d="M264.595703,98.537598
		c-0.197266,1.216797-1.269531,2.030273-2.393555,1.815918c-1.124023-0.214844-1.874023-1.375977-1.675781-2.592773
		c0.198242-1.218262,1.269531-2.03125,2.393555-1.815918C264.043945,96.159668,264.793945,97.320801,264.595703,98.537598"/>
</g>
<path fill="#6C7B82" d="M261.771484,89.990234l-5.001953,1.862793c-1.242188,0.461914-2.637695-0.175781-3.100586-1.417969
	c-0.461914-1.242676,0.176758-2.637695,1.417969-3.100098l5.001953-1.862793c1.243164-0.462891,2.637695,0.174805,3.100586,1.417969
	C263.652344,88.132324,263.013672,89.527344,261.771484,89.990234"/>
<path fill="#6C7B82" d="M301.578125,89.990234l5.001953,1.862793c1.243164,0.461914,2.638672-0.175781,3.101563-1.417969
	c0.461914-1.242676-0.175781-2.637695-1.417969-3.100098l-5.001953-1.862793
	c-1.243164-0.462891-2.638672,0.174805-3.101563,1.417969C299.697266,88.132324,300.336914,89.527344,301.578125,89.990234"/>
<g>
	<defs>
		<polyline id="SVGID_1_" points="281.547852,145.197754 339.300781,145.197754 339.300781,43.697754 281.547852,43.697754 
			281.547852,145.197754 		"/>
	</defs>
	<clipPath id="SVGID_24_">
		<use xlink:href="#SVGID_1_"  overflow="visible"/>
	</clipPath>
	<path clip-path="url(#SVGID_24_)" fill="#2F85D0" d="M288.245117,142.02002
		c-0.001953,0.001953-0.003906,0.004883-0.004883,0.006836C288.241211,142.024414,288.243164,142.022461,288.245117,142.02002
		 M289.976563,137.240234c-0.05957,1.792969-0.692383,3.441895-1.72168,4.76709
		C289.28418,140.682129,289.916992,139.033691,289.976563,137.240234 M336.775391,115.806152
		c-0.166016,0-0.339844,0-0.508789,0.007324c0.168945-0.006836,0.34375-0.006836,0.508789-0.006836V115.806152
		 M338.694336,54.880371c-0.001953,0.009277-0.00293,0.016602-0.004883,0.025879
		C338.691406,54.897461,338.692383,54.889648,338.694336,54.880371 M338.571289,45.216797L338.571289,45.216797
		c0.990234,1.334961,0.912109,4.96875,0.125977,9.644531C339.483398,50.186035,339.5625,46.551758,338.571289,45.216797
		L338.571289,45.216797"/>
	<path clip-path="url(#SVGID_24_)" fill="#566972" d="M333.999023,43.697754h-0.160156
		c-6.25293,0.03125-16.947266,3.758301-25.457031,9.117676c-0.293945,0.185547-0.583984,0.371582-0.87207,0.560547l0,0
		c-2.791992,1.82959-5.320313,3.678711-7.615234,5.497559h-0.011719l0,0h7.49707
		c0.000977,0.000488,0.000977,0.000977,0.000977,0.001465c0.126953-0.083984,0.253906-0.16748,0.381836-0.250977
		c8.999023-5.895508,19.739258-9.200195,24.771484-9.200195c0.9375,0,1.677734,0.114746,2.170898,0.349121
		c1.319336,3.51416-2.336914,24.007813-10.763672,36.736816c0.496094,1.019043,0.987305,2.038574,1.47168,3.053223
		c5.088867-5.27002,11.328125-23.113281,13.276367-34.656738c0.001953-0.009277,0.00293-0.016602,0.004883-0.025879
		c0.000977-0.005859,0.001953-0.013184,0.00293-0.019043c0.786133-4.675781,0.864258-8.30957-0.125977-9.644531l0,0
		C337.805664,44.185059,336.183594,43.708984,333.999023,43.697754"/>
	<path clip-path="url(#SVGID_24_)" fill="#A1B4BC" d="M332.53418,49.423828c-5.032227,0-15.772461,3.304688-24.771484,9.200195
		c-0.12793,0.083496-0.254883,0.166992-0.381836,0.250977c4.341797,4.004883,10.801758,15.805664,16.560547,27.634766
		c8.426758-12.729004,12.083008-33.222656,10.763672-36.736816C334.211914,49.538574,333.47168,49.423828,332.53418,49.423828"/>
	<path clip-path="url(#SVGID_24_)" fill="#566972" d="M307.379883,58.873535h-7.49707h-18.334961v28.099121
		c0.042969,0.07666,0.085938,0.15332,0.12793,0.230469c3.100586-5.675781,9.123047-9.526855,16.046875-9.526855
		c10.092773,0,18.276367,8.181641,18.276367,18.275879c0,3.602051-1.057617,6.951172-2.856445,9.780762
		c9.010742,0.24707,17.138672,4.054199,22.999023,10.086914c0.000977,0,0.000977,0,0.000977,0
		c0.041016-0.00293,0.082031-0.004883,0.124023-0.006348c0.168945-0.007324,0.342773-0.007324,0.508789-0.007324
		c-0.00293-0.759277-5.09668-13.103027-11.364258-26.241211c0-0.000488,0.000977-0.001465,0.001953-0.001953
		c-0.484375-1.014648-0.975586-2.03418-1.47168-3.053223c-5.758789-11.829102-12.21875-23.629883-16.560547-27.634766
		C307.380859,58.874512,307.380859,58.874023,307.379883,58.873535"/>
	<path clip-path="url(#SVGID_24_)" fill="#A1B4BC" d="M293.445313,106.411133c-0.886719-0.86377-1.510742-1.967773-1.71875-3.248047
		c-0.577148-3.550781,2.180664-7.045898,6.160156-7.806152c0.519531-0.099121,1.035156-0.146973,1.539063-0.146973
		c3.353516,0,6.210938,2.113281,6.713867,5.200195c0.208984,1.279785-0.02832,2.547852-0.588867,3.687988
		c-0.861328-0.282715-1.814453-0.461914-2.827148-0.523926c0,0.000488,0,0.000488,0,0.000977
		c-0.262695-0.016113-0.529297-0.024414-0.799805-0.024414c-0.691406,0-1.40625,0.053711-2.132813,0.165039
		c-0.175781,0.026855-0.351563,0.057617-0.529297,0.091309C296.96582,104.246094,294.948242,105.190918,293.445313,106.411133
		 M307.415039,92.003418c-0.27832,0-0.560547-0.04834-0.834961-0.150391l-5.001953-1.862793
		c-1.241211-0.462891-1.880859-1.85791-1.417969-3.100098c0.360352-0.968262,1.286133-1.568848,2.265625-1.568848
		c0.27832,0,0.560547,0.04834,0.835938,0.150879l5.001953,1.862793c1.242188,0.462402,1.879883,1.857422,1.417969,3.100098
		C309.321289,91.402832,308.394531,92.003418,307.415039,92.003418 M297.722656,77.67627
		c-6.923828,0-12.946289,3.851074-16.046875,9.526855c-0.041992-0.077148-0.084961-0.153809-0.12793-0.230469v25.969238
		c0.042969-0.000488,0.084961-0.000488,0.12793-0.000488c5.137695,0,9.356445,1.166016,9.791992,2.652832
		c3.913086,0.803711,6.780273,3.402344,6.780273,6.483887c0,3.460449-3.614258,6.312012-8.266602,6.696777v7.765625l0,0v-0.003906
		c13.016602-5.384766,24.441406-20.37793,46.161133-20.716797c-5.861328-6.032715-13.989258-9.839844-23-10.086914
		c1.798828-2.82959,2.856445-6.178711,2.856445-9.780762C315.999023,85.85791,307.81543,77.67627,297.722656,77.67627"/>
	<path clip-path="url(#SVGID_24_)" fill="#C29EA8" d="M282.574219,127.036621v15.393066
		c0,0.458984-0.371094,0.830566-0.830078,0.830566c-0.067383,0-0.132813-0.008301-0.196289-0.023438v1.940918l0.196289,0.02002
		c2.638672,0,4.988281-1.240723,6.496094-3.170898c0.000977-0.001953,0.00293-0.004883,0.004883-0.006836
		c0.00293-0.003906,0.006836-0.008301,0.009766-0.012695c1.029297-1.325195,1.662109-2.974121,1.72168-4.76709
		c0.00293-0.092773,0.004883-0.185547,0.004883-0.279297v-0.42041v-7.765625
		c-0.353516,0.029297-0.711914,0.044434-1.076172,0.044434C286.462891,128.819336,284.239258,128.143555,282.574219,127.036621"/>
	<path clip-path="url(#SVGID_24_)" fill="#C2737E" d="M281.674805,126.349121
		c-0.041992,0.037109-0.083984,0.07373-0.126953,0.109863v16.777832c0.063477,0.015137,0.128906,0.023438,0.196289,0.023438
		c0.458984,0,0.830078-0.371582,0.830078-0.830566v-15.393066C282.25293,126.823242,281.952148,126.593262,281.674805,126.349121"/>
	<path clip-path="url(#SVGID_24_)" fill="#B7CDD7" d="M281.547852,126.234863v0.224121
		c0.042969-0.036133,0.084961-0.072754,0.126953-0.109863C281.632813,126.311523,281.589844,126.273438,281.547852,126.234863"/>
	<path clip-path="url(#SVGID_24_)" fill="#B7CDD7" d="M291.467773,115.594238
		c0.024414,0.083984,0.037109,0.168457,0.037109,0.254395c0,1.605957-6.09082,4.291992-9.829102,4.291992
		c-0.041992,0-0.084961-0.000488-0.12793-0.000977v6.095215c0.041992,0.038574,0.084961,0.07666,0.126953,0.114258
		c0.277344,0.244141,0.578125,0.474121,0.899414,0.6875c1.665039,1.106934,3.888672,1.782715,6.331055,1.782715
		c0.364258,0,0.722656-0.015137,1.076172-0.044434c4.652344-0.384766,8.266602-3.236328,8.266602-6.696777
		C298.248047,118.996582,295.380859,116.397949,291.467773,115.594238"/>
	<path clip-path="url(#SVGID_24_)" fill="#383C3E" d="M281.675781,112.941406c-0.042969,0-0.084961,0-0.12793,0.000488v0.805664
		c0.041992-0.000488,0.084961-0.000488,0.126953-0.000488c2.702148,0,4.893555,0.605957,4.893555,1.35498
		s-3.032227,2.000977-4.893555,2.000977c-0.041992,0-0.083984-0.000488-0.126953-0.001953v3.038574
		c0.042969,0.000488,0.085938,0.000977,0.12793,0.000977c3.738281,0,9.829102-2.686035,9.829102-4.291992
		c0-0.085938-0.012695-0.17041-0.037109-0.254395C291.032227,114.107422,286.813477,112.941406,281.675781,112.941406"/>
	<path clip-path="url(#SVGID_24_)" fill="#8E989D" d="M281.674805,113.74707c-0.041992,0-0.084961,0-0.126953,0.000488v3.353516
		c0.042969,0.001465,0.084961,0.001953,0.126953,0.001953c1.861328,0,4.893555-1.251953,4.893555-2.000977
		S284.376953,113.74707,281.674805,113.74707"/>
	<path clip-path="url(#SVGID_24_)" fill="#3379B8" d="M299.425781,95.209961c-0.503906,0-1.019531,0.047852-1.539063,0.146973
		c-3.979492,0.760254-6.737305,4.255371-6.160156,7.806152c0.208008,1.280273,0.832031,2.384277,1.71875,3.248047
		c1.50293-1.220215,3.520508-2.165039,5.816406-2.604004c0.177734-0.033691,0.353516-0.064453,0.529297-0.091309
		c-0.174805,0.026855-0.351563,0.057129-0.52832,0.09082c-1.195313,0.228516-2.31543,0.594238-3.326172,1.063965
		c-0.768555-0.706055-1.323242-1.695801-1.511719-2.854492c-0.087891-0.539551-0.089844-1.07373-0.015625-1.586426
		c-0.200195-0.278809-0.342773-0.613281-0.40332-0.985352c-0.198242-1.217285,0.551758-2.37793,1.675781-2.593262
		c0.121094-0.022949,0.241211-0.03418,0.360352-0.03418c0.217773,0,0.430664,0.037598,0.631836,0.10791
		c0.419922-0.250488,0.884766-0.431641,1.382813-0.526855c0.262695-0.050293,0.524414-0.074219,0.782227-0.074219
		c2.131836-0.000488,4.020508,1.654785,4.40332,4.008301c0.188477,1.15918-0.019531,2.294434-0.518555,3.242188
		c1.012695,0.062012,1.96582,0.241211,2.827148,0.523926c0.560547-1.140137,0.797852-2.408203,0.588867-3.687988
		C305.636719,97.323242,302.779297,95.209961,299.425781,95.209961"/>
	<path clip-path="url(#SVGID_24_)" fill="#383C3E" d="M298.838867,96.32373c-0.257813,0-0.519531,0.023926-0.782227,0.074219
		c-0.498047,0.095215-0.962891,0.276367-1.382813,0.526855c0.705078,0.24707,1.264648,0.897461,1.402344,1.742676
		c0.198242,1.216797-0.551758,2.37793-1.675781,2.592773c-0.121094,0.022949-0.242188,0.03418-0.361328,0.03418
		c-0.647461,0-1.246094-0.330078-1.629883-0.864746c-0.074219,0.512695-0.072266,1.046875,0.015625,1.586426
		c0.188477,1.158691,0.743164,2.148438,1.511719,2.854492c1.010742-0.469727,2.130859-0.835449,3.326172-1.063965
		c0.176758-0.033691,0.353516-0.063965,0.52832-0.09082c0.726563-0.111328,1.441406-0.165039,2.132813-0.165039
		c0.270508,0,0.537109,0.008301,0.799805,0.024414c0-0.000488,0-0.000488,0-0.000977
		c0.499023-0.947754,0.707031-2.083008,0.518555-3.242188C302.859375,97.978516,300.970703,96.323242,298.838867,96.32373"/>
	<path clip-path="url(#SVGID_24_)" fill="#CAD9E0" d="M296.041992,96.816895c-0.119141,0-0.239258,0.01123-0.360352,0.03418
		c-1.124023,0.215332-1.874023,1.375977-1.675781,2.593262c0.060547,0.37207,0.203125,0.706543,0.40332,0.985352
		c0.383789,0.534668,0.982422,0.864746,1.629883,0.864746c0.119141,0,0.240234-0.01123,0.361328-0.03418
		c1.124023-0.214844,1.874023-1.375977,1.675781-2.592773c-0.137695-0.845215-0.697266-1.495605-1.402344-1.742676
		C296.472656,96.854492,296.259766,96.816895,296.041992,96.816895"/>
	<path clip-path="url(#SVGID_24_)" fill="#566972" d="M302.425781,85.321289c-0.979492,0-1.905273,0.600586-2.265625,1.568848
		c-0.462891,1.242188,0.176758,2.637207,1.417969,3.100098l5.001953,1.862793
		c0.274414,0.102051,0.556641,0.150391,0.834961,0.150391c0.979492,0,1.90625-0.600586,2.266602-1.568359
		c0.461914-1.242676-0.175781-2.637695-1.417969-3.100098l-5.001953-1.862793
		C302.986328,85.369629,302.704102,85.321289,302.425781,85.321289"/>
</g>
</svg>
