<?xml version="1.0" encoding="utf-8"?>
<!-- Generator: Adobe Illustrator 15.0.0, SVG Export Plug-In  -->
<!DOCTYPE svg PUBLIC "-//W3C//DTD SVG 1.1//EN" "http://www.w3.org/Graphics/SVG/1.1/DTD/svg11.dtd" [
	<!ENTITY ns_flows "http://ns.adobe.com/Flows/1.0/">
]>
<svg version="1.1"
	 xmlns="http://www.w3.org/2000/svg" xmlns:xlink="http://www.w3.org/1999/xlink" xmlns:a="http://ns.adobe.com/AdobeSVGViewerExtensions/3.0/"
	 x="0px" y="0px" width="174px" height="174px" viewBox="0 212.788086 174 174" enable-background="new 0 212.788086 174 174"
	 xml:space="preserve">
<defs>
</defs>
<g>
	<defs>
		<path id="SVGID_4_" d="M0,87.211914c0,48.165039,39.045898,87.211914,87.211914,87.211914
			c48.165039,0,87.211914-39.046875,87.211914-87.211914C174.423828,39.045898,135.376953,0,87.211914,0
			C39.045898,0,0,39.045898,0,87.211914"/>
	</defs>
	<clipPath id="SVGID_8_">
		<use xlink:href="#SVGID_4_"  overflow="visible"/>
	</clipPath>
	<g clip-path="url(#SVGID_8_)">
		<defs>
			<polyline id="SVGID_6_" points="47.617188,229.655762 242.288086,229.655762 242.288086,42.061035 47.617188,42.061035 
				47.617188,229.655762 			"/>
		</defs>
		<clipPath id="SVGID_10_">
			<use xlink:href="#SVGID_6_"  overflow="visible"/>
		</clipPath>
		<path clip-path="url(#SVGID_10_)" fill="#EDB4C5" d="M126.173828,165.257813
			c-7.942383,3.972168-16.578125,6.769043-25.672852,8.159668v0.000488
			C109.595703,172.027344,118.231445,169.22998,126.173828,165.257813 M126.214844,165.237305
			c-0.00293,0.001465-0.004883,0.002441-0.006836,0.003418C126.209961,165.239746,126.211914,165.23877,126.214844,165.237305
			 M173.638672,75.456543c0.517578,3.844727,0.785156,7.769043,0.785156,11.755371l0,0
			C174.423828,83.225586,174.15625,79.30127,173.638672,75.456543L173.638672,75.456543"/>
		<path clip-path="url(#SVGID_10_)" fill="#D64C6F" d="M140.756836,42.575684c0.144531,0.310059,0.25293,0.686035,0.328125,1.119629
			c0.000977,0.000488,0.000977,0.001465,0.000977,0.002441c0.000977,0.006348,0.001953,0.013184,0.00293,0.019043
			c0,0.001465,0.000977,0.001953,0.000977,0.003418c0.000977,0.005859,0.001953,0.011719,0.00293,0.017578
			c0,0.002441,0.000977,0.003906,0.000977,0.006348c0.000977,0.004395,0.001953,0.009766,0.001953,0.01416
			c0.000977,0.003418,0.000977,0.006348,0.001953,0.010254c0.000977,0.003418,0.000977,0.006348,0.001953,0.009766
			c0,0.004883,0.000977,0.009766,0.001953,0.014648c0,0.002441,0.000977,0.003906,0.000977,0.006836
			c0.000977,0.005371,0.001953,0.010742,0.00293,0.016602c0,0.001953,0,0.003906,0.000977,0.005859
			c0.000977,0.005859,0.001953,0.012695,0.00293,0.018555c0,0.000977,0,0.001465,0,0.002441
			c0.070313,0.458496,0.105469,0.977539,0.109375,1.547852v0.011719c0,0.056152,0,0.11377,0,0.170898v0.010742
			c-0.003906,0.622559-0.043945,1.303223-0.117188,2.032715c-0.901367,8.970215-6.827148,25.235352-11.99707,30.015137
			c4.426758,8.431152,7.293945,17.378418,7.361328,25.341797c0,0.001953,0,0.00293,0,0.004883
			c0,0.029297,0,0.058105,0.000977,0.087891c0,0.003418,0,0.006836,0,0.010254c0,0.02832,0,0.057129,0,0.085449
			c0,0.00293,0,0.005859,0,0.008789c0,0.029297,0,0.059082,0,0.088379l0,0l0,0l0,0
			c0,14.535156-35.104492,37.708984-49.365234,37.708984c-8.204102,0-27.313477-9.027832-39.206055-20.15625l52.605469,52.60498
			c9.094727-1.390625,17.730469-4.1875,25.672852-8.159668c0.011719-0.005859,0.021484-0.010742,0.03418-0.01709
			c0.001953-0.000977,0.003906-0.001953,0.006836-0.003418c28.583984-14.316895,48.208984-43.879883,48.208984-78.025391
			c0-3.986328-0.267578-7.910645-0.785156-11.755371L140.756836,42.575684"/>
	</g>
</g>
<path fill="#336885" d="M174.628906,301.496094c0,48.166016-39.045898,87.210938-87.211914,87.210938
	S0.206055,349.662109,0.206055,301.496094c0-48.166504,39.044922-87.212402,87.210938-87.212402
	S174.628906,253.32959,174.628906,301.496094"/>
<g>
	<defs>
		<path id="SVGID_2_" d="M0.206055,301.496094c0,48.164063,39.044922,87.210938,87.210938,87.210938
			s87.210938-39.046875,87.210938-87.210938c0-48.16748-39.044922-87.212402-87.210938-87.212402
			S0.206055,253.328613,0.206055,301.496094"/>
	</defs>
	<clipPath id="SVGID_12_">
		<use xlink:href="#SVGID_2_"  overflow="visible"/>
	</clipPath>
	<g clip-path="url(#SVGID_12_)">
		<defs>
			<polyline id="SVGID_3_" points="28.920898,446.904297 244.875977,446.904297 244.875977,258.096191 28.920898,258.096191 
				28.920898,446.904297 			"/>
		</defs>
		<clipPath id="SVGID_14_">
			<use xlink:href="#SVGID_3_"  overflow="visible"/>
		</clipPath>
		<path clip-path="url(#SVGID_14_)" fill="#275172" d="M146.407227,258.464355
			c0.022461,0.039063,0.043945,0.079102,0.06543,0.120605c0,0,0,0.000488,0,0.000977
			c0.003906,0.005859,0.005859,0.01123,0.008789,0.01709c0.000977,0.000977,0.000977,0.000977,0.001953,0.002441
			c0.00293,0.005371,0.004883,0.010254,0.007813,0.016113c0,0.000488,0.000977,0.001465,0.000977,0.002441
			c0.00293,0.005371,0.005859,0.010742,0.007813,0.016113c0.000977,0.000977,0.000977,0.001953,0.001953,0.002441
			c0.001953,0.005371,0.004883,0.01123,0.007813,0.016602c0,0.000977,0.000977,0.001465,0.000977,0.002441
			c0.00293,0.005371,0.004883,0.010742,0.007813,0.016113c0,0.000977,0.000977,0.002441,0.000977,0.00293
			c0.00293,0.005371,0.005859,0.011719,0.008789,0.01709c0,0.000488,0,0.000977,0,0.001465
			c0.00293,0.005859,0.005859,0.012207,0.008789,0.017578c0,0.000977,0,0.001465,0.000977,0.001953
			c0.001953,0.005859,0.004883,0.012207,0.007813,0.018066c0,0.000488,0.000977,0.000977,0.000977,0.001465
			c0.00293,0.006348,0.004883,0.011719,0.007813,0.018066c0,0.000488,0.000977,0.001465,0.000977,0.001465
			c0.035156,0.07959,0.068359,0.161621,0.099609,0.247559v0.000488c0.005859,0.01416,0.010742,0.027832,0.015625,0.04248
			l0.000977,0.000977c0.001953,0.007324,0.004883,0.013672,0.006836,0.020996v0.000488
			c0.00293,0.006836,0.004883,0.01416,0.007813,0.020996c0,0.000488,0,0.000977,0,0.001465
			c0.025391,0.073242,0.049805,0.148438,0.072266,0.226563v0.000977c0.004883,0.015137,0.008789,0.030273,0.013672,0.04541
			c0,0.000977,0,0.001465,0,0.002441c0.001953,0.006836,0.003906,0.013672,0.005859,0.020996
			c0.000977,0.000977,0.000977,0.002441,0.000977,0.003418c0.001953,0.006348,0.003906,0.013184,0.005859,0.02002
			c0,0.001465,0.000977,0.002441,0.000977,0.003906c0.001953,0.006836,0.003906,0.012695,0.005859,0.019531
			c0,0.001465,0,0.00293,0.000977,0.004395c0.001953,0.006348,0.00293,0.013184,0.004883,0.019043
			c0,0.001465,0.000977,0.003906,0.000977,0.005371c0.001953,0.005859,0.003906,0.012695,0.005859,0.019043
			c0,0.001465,0,0.00293,0.000977,0.004395c0.001953,0.006836,0.00293,0.013184,0.004883,0.02002
			c0,0.001465,0.000977,0.00293,0.000977,0.004395c0.001953,0.006836,0.003906,0.014648,0.005859,0.021973
			c0,0.000488,0,0.000977,0,0.001465c0.001953,0.007813,0.003906,0.014648,0.005859,0.022461
			c0,0.000488,0,0.001953,0.000977,0.002441c0.009766,0.041504,0.019531,0.082031,0.029297,0.125c0,0.000488,0,0,0,0.000488
			c0.001953,0.008301,0.003906,0.016113,0.004883,0.024414c0.000977,0.000977,0.000977,0.001953,0.000977,0.00293
			c0.001953,0.007324,0.00293,0.014648,0.004883,0.021973c0.000977,0.002441,0.000977,0.003418,0.000977,0.005371
			c0.001953,0.006836,0.00293,0.012207,0.003906,0.018555c0.000977,0.003418,0.001953,0.006836,0.00293,0.010254
			c0.000977,0.004883,0.001953,0.010254,0.00293,0.015137c0.000977,0.003906,0.000977,0.007324,0.001953,0.01123
			c0.000977,0.004395,0.001953,0.008301,0.00293,0.013184c0.000977,0.004395,0.001953,0.008301,0.00293,0.012695
			s0.001953,0.008301,0.001953,0.012695c0.000977,0.004883,0.001953,0.009277,0.00293,0.01416
			c0.000977,0.00293,0.001953,0.006348,0.001953,0.009766c0.000977,0.005371,0.00293,0.010742,0.003906,0.016113
			c0,0.00293,0.000977,0.006348,0.001953,0.009766c0.000977,0.004883,0.001953,0.010742,0.00293,0.015625
			c0,0.003418,0.000977,0.006348,0.001953,0.009277c0.000977,0.005859,0.001953,0.010742,0.00293,0.016602
			c0,0.00293,0.000977,0.006348,0.001953,0.009766c0.000977,0.005371,0.001953,0.010742,0.00293,0.016602
			c0,0.001953,0.000977,0.004883,0.000977,0.006836c0.000977,0.006348,0.00293,0.013184,0.003906,0.019043
			c0,0.002441,0.000977,0.004395,0.000977,0.006348c0.000977,0.006836,0.001953,0.013184,0.003906,0.02002
			c0,0.001465,0,0.002441,0,0.004395c0.001953,0.007324,0.00293,0.014648,0.003906,0.021973l0.000977,0.000488
			c1.37793,7.827637-6.289063,31.510254-13.295898,39.507324c5.799805,8.496582,9.833008,16.105957,11.485352,19.374512
			c0.549805,1.086914,0.835938,1.693359,0.835938,1.693359l-45.995117,28.378906l-0.905273,0.554688l-9.323242,5.75
			c-0.708984,0.436523-1.509766,0.654297-2.310547,0.654297c-0.198242,0-0.397461-0.012695-0.594727-0.040039
			c-0.598633-0.081055-1.183594-0.286133-1.716797-0.614258l-9.146484-5.638672l-0.175781-0.111328l-0.904297-0.554688
			L29.178711,320.78125l-0.257813,0.138672l67.34375,67.34375c44.010742-4.43457,78.363281-41.59082,78.363281-86.767578
			c0-5.585938-0.524414-11.044922-1.52832-16.338867L146.407227,258.464355"/>
	</g>
</g>
<path fill="#FF7B4A" d="M42.547852,300.878906c-8.136719-6.915527-18.067383-38.590332-13.753906-42.902832
	c4.207031-4.207031,35.985352,5.619141,42.901367,13.754883L42.547852,300.878906z"/>
<path fill="#C45329" d="M46.12207,296.898926c-5.140625-4.370117-11.416992-24.385742-8.691406-27.111328
	c2.658203-2.658203,22.740234,3.550781,27.110352,8.692383C58.401367,284.619629,52.261719,290.758301,46.12207,296.898926"/>
<path fill="#FF7B4A" d="M132.286133,300.878906c8.136719-6.915527,18.067383-38.590332,13.754883-42.902832
	c-4.207031-4.207031-35.986328,5.619141-42.902344,13.754883L132.286133,300.878906"/>
<path fill="#C45329" d="M128.711914,296.898926c5.140625-4.370117,11.416992-24.385742,8.691406-27.111328
	c-2.658203-2.658203-22.740234,3.550781-27.110352,8.692383C116.432617,284.619629,122.572266,290.758301,128.711914,296.898926"/>
<path fill="#FF7B4A" d="M145.947266,320.607422l-45.994141,28.378906l-0.905273,0.554688l-0.269531,0.158203l-9.053711,5.589844
	c-1.416016,0.875-3.205078,0.875-4.62207,0.001953l-9.146484-5.638672l-0.175781-0.111328l-0.904297-0.554688l-45.979492-28.378906
	c0,0,6.22168-13.171875,16.332031-26.679199c1.792969-2.396484,3.713867-4.80957,5.729492-7.158203
	c9.982422-11.601563,22.664063-21.711914,36.457031-21.711914c13.775391,0,26.44043,10.094727,36.456055,21.680664
	c2.03125,2.364258,3.967773,4.777344,5.744141,7.189453C139.741211,307.435547,145.947266,320.607422,145.947266,320.607422"/>
<path fill="#FF936B" d="M81.361328,321.056641c0,2.101563-0.416992,3.804688-0.932617,3.804688
	c-0.513672,0-0.930664-1.703125-0.930664-3.804688s0.416992-3.804688,0.930664-3.804688
	C80.944336,317.251953,81.361328,318.955078,81.361328,321.056641"/>
<path fill="#FF936B" d="M86.019531,321.056641c0,2.101563-0.416992,3.804688-0.932617,3.804688
	c-0.513672,0-0.930664-1.703125-0.930664-3.804688s0.416992-3.804688,0.930664-3.804688
	C85.602539,317.251953,86.019531,318.955078,86.019531,321.056641"/>
<path fill="#FF936B" d="M90.677734,321.056641c0,2.101563-0.416992,3.804688-0.931641,3.804688
	s-0.931641-1.703125-0.931641-3.804688s0.416992-3.804688,0.931641-3.804688S90.677734,318.955078,90.677734,321.056641"/>
<path fill="#FF936B" d="M95.335938,321.056641c0,2.101563-0.416992,3.804688-0.931641,3.804688
	s-0.931641-1.703125-0.931641-3.804688s0.416992-3.804688,0.931641-3.804688S95.335938,318.955078,95.335938,321.056641"/>
<path fill="#FF936B" d="M83.69043,330.621094c0,2.101563-0.416992,3.804688-0.931641,3.804688s-0.931641-1.703125-0.931641-3.804688
	s0.416992-3.804688,0.931641-3.804688S83.69043,328.519531,83.69043,330.621094"/>
<path fill="#FF936B" d="M88.348633,330.621094c0,2.101563-0.416992,3.804688-0.931641,3.804688
	s-0.931641-1.703125-0.931641-3.804688s0.416992-3.804688,0.931641-3.804688S88.348633,328.519531,88.348633,330.621094"/>
<path fill="#FF936B" d="M93.006836,330.621094c0,2.101563-0.416992,3.804688-0.931641,3.804688
	s-0.931641-1.703125-0.931641-3.804688s0.416992-3.804688,0.931641-3.804688S93.006836,328.519531,93.006836,330.621094"/>
<path fill="#FF936B" d="M86.019531,339.671875c0,2.101563-0.416992,3.804688-0.932617,3.804688
	c-0.513672,0-0.930664-1.703125-0.930664-3.804688s0.416992-3.804688,0.930664-3.804688
	C85.602539,335.867188,86.019531,337.570313,86.019531,339.671875"/>
<path fill="#FF936B" d="M90.677734,339.671875c0,2.101563-0.416992,3.804688-0.931641,3.804688
	s-0.931641-1.703125-0.931641-3.804688s0.416992-3.804688,0.931641-3.804688S90.677734,337.570313,90.677734,339.671875"/>
<path fill="#474747" d="M99.047852,349.541016l-9.323242,5.75c-1.416992,0.873047-3.204102,0.873047-4.620117,0l-9.324219-5.75
	c3.396484-0.984375,7.380859-1.554688,11.633789-1.554688C91.667969,347.986328,95.635742,348.541016,99.047852,349.541016"/>
<path fill="#737373" d="M94.111328,350.072266l-5.367188,3.027344c-0.81543,0.460938-1.844727,0.460938-2.65918,0
	l-5.367188-3.027344c1.955078-0.517578,4.248047-0.820313,6.697266-0.820313
	C89.862305,349.251953,92.147461,349.544922,94.111328,350.072266"/>
<path fill="#EBE3CC" d="M74.875977,348.986328l-45.978516-28.378906c0,0,6.220703-13.171875,16.330078-26.679199
	c15.110352,3.967773,27.775391,16.380371,31.314453,32.520996C78.288086,334.431641,77.574219,342.193359,74.875977,348.986328"/>
<path fill="#EBE3CC" d="M145.947266,320.607422l-45.994141,28.378906c-2.682617-6.792969-3.397461-14.554688-1.651367-22.537109
	c3.540039-16.140625,16.205078-28.553223,31.313477-32.520996C139.741211,307.435547,145.947266,320.607422,145.947266,320.607422"
	/>
<path fill="#474747" d="M70.87207,326.375c0,1.939453-1.573242,3.511719-3.513672,3.511719s-3.513672-1.572266-3.513672-3.511719
	c0-1.941406,1.573242-3.513672,3.513672-3.513672S70.87207,324.433594,70.87207,326.375"/>
<path fill="#FFFFFF" d="M67.592773,325.203125c0,0.689453-0.558594,1.248047-1.249023,1.248047
	s-1.249023-0.558594-1.249023-1.248047s0.558594-1.25,1.249023-1.25S67.592773,324.513672,67.592773,325.203125"/>
<path fill="#474747" d="M110.999023,326.375c0,1.939453-1.572266,3.511719-3.512695,3.511719
	c-1.941406,0-3.513672-1.572266-3.513672-3.511719c0-1.941406,1.572266-3.513672,3.513672-3.513672
	C109.426758,322.861328,110.999023,324.433594,110.999023,326.375"/>
<path fill="#FFFFFF" d="M107.719727,325.203125c0,0.689453-0.558594,1.248047-1.249023,1.248047
	c-0.689453,0-1.249023-0.558594-1.249023-1.248047s0.55957-1.25,1.249023-1.25
	C107.161133,323.953125,107.719727,324.513672,107.719727,325.203125"/>
<g>
	<defs>
		<polyline id="SVGID_1_" points="87.486328,355.890625 147.083984,355.890625 147.083984,256.969238 87.486328,256.969238 
			87.486328,355.890625 		"/>
	</defs>
	<clipPath id="SVGID_16_">
		<use xlink:href="#SVGID_1_"  overflow="visible"/>
	</clipPath>
	<path clip-path="url(#SVGID_16_)" fill="#33565A" d="M146.404297,258.459473c0.000977,0.001465,0.001953,0.00293,0.00293,0.004883
		l0,0C146.40625,258.462891,146.405273,258.460449,146.404297,258.459473 M146.394531,258.442383
		c0.00293,0.004883,0.005859,0.009766,0.008789,0.015137C146.400391,258.452148,146.397461,258.447266,146.394531,258.442383
		 M146.384766,258.425293c0.001953,0.004395,0.005859,0.009766,0.007813,0.014648
		C146.389648,258.43457,146.387695,258.430176,146.384766,258.425293 M146.374023,258.408691
		c0.00293,0.004395,0.005859,0.008789,0.008789,0.013184C146.379883,258.41748,146.376953,258.413086,146.374023,258.408691
		 M146.364258,258.39209c0.00293,0.003906,0.004883,0.008301,0.007813,0.012207
		C146.369141,258.399902,146.367188,258.396484,146.364258,258.39209 M146.353516,258.375488
		c0.00293,0.003418,0.005859,0.008301,0.007813,0.011719C146.359375,258.383301,146.356445,258.379395,146.353516,258.375488
		 M146.34375,258.358887c0.00293,0.004395,0.004883,0.007813,0.007813,0.012207
		C146.348633,258.367188,146.345703,258.362793,146.34375,258.358887 M146.333008,258.342773
		c0.00293,0.003906,0.004883,0.007813,0.007813,0.011719C146.337891,258.350586,146.335938,258.34668,146.333008,258.342773
		 M146.323242,258.32666c0.001953,0.003906,0.004883,0.007813,0.006836,0.01123
		C146.328125,258.333984,146.325195,258.330566,146.323242,258.32666 M146.3125,258.310059
		c0.001953,0.003906,0.004883,0.007813,0.006836,0.011719C146.317383,258.317871,146.314453,258.313965,146.3125,258.310059
		 M146.300781,258.293945c0.00293,0.004395,0.005859,0.008301,0.008789,0.012207
		C146.306641,258.302246,146.303711,258.29834,146.300781,258.293945 M146.290039,258.277832
		c0.00293,0.004395,0.005859,0.008301,0.008789,0.012695C146.295898,258.286133,146.292969,258.282227,146.290039,258.277832
		 M146.279297,258.262207c0.00293,0.003906,0.005859,0.008789,0.008789,0.012695
		C146.285156,258.270508,146.282227,258.266602,146.279297,258.262207 M146.266602,258.244141
		c0.003906,0.004883,0.006836,0.010254,0.010742,0.015137C146.273438,258.254395,146.270508,258.249023,146.266602,258.244141
		 M146.233398,258.19873c0.010742,0.014648,0.022461,0.030273,0.033203,0.04541
		C146.255859,258.228516,146.244141,258.213379,146.233398,258.19873 M146.22168,258.183594
		c0.00293,0.003418,0.005859,0.007324,0.008789,0.010742C146.227539,258.19043,146.224609,258.1875,146.22168,258.183594
		 M146.210938,258.169434c0.00293,0.003418,0.004883,0.006836,0.007813,0.010254
		C146.21582,258.17627,146.213867,258.172852,146.210938,258.169434 M146.199219,258.154785
		c0.00293,0.00293,0.004883,0.006348,0.007813,0.009277C146.204102,258.161133,146.202148,258.157715,146.199219,258.154785
		 M146.188477,258.141113c0.001953,0.002441,0.003906,0.005371,0.006836,0.007813
		C146.192383,258.145996,146.19043,258.143555,146.188477,258.141113 M146.176758,258.126465
		c0.001953,0.00293,0.004883,0.005371,0.006836,0.008301C146.181641,258.132324,146.178711,258.129395,146.176758,258.126465
		 M146.166016,258.112793c0.001953,0.00293,0.003906,0.005371,0.005859,0.007813
		C146.169922,258.117676,146.167969,258.115723,146.166016,258.112793 M146.154297,258.099121
		c0.001953,0.002441,0.003906,0.004883,0.005859,0.007324C146.158203,258.104004,146.15625,258.101563,146.154297,258.099121
		 M146.142578,258.085449c0.001953,0.002441,0.003906,0.004883,0.005859,0.007324
		C146.146484,258.09082,146.144531,258.087891,146.142578,258.085449 M146.130859,258.071777
		c0.001953,0.002441,0.003906,0.004883,0.005859,0.007324C146.134766,258.077148,146.132813,258.074219,146.130859,258.071777
		 M146.119141,258.058594c0.001953,0.002441,0.003906,0.004883,0.005859,0.007324
		C146.123047,258.063477,146.121094,258.061035,146.119141,258.058594 M146.106445,258.044922
		c0.00293,0.00293,0.004883,0.004883,0.006836,0.007813C146.111328,258.049805,146.109375,258.047363,146.106445,258.044922
		 M146.094727,258.032227c0.001953,0.002441,0.004883,0.004883,0.006836,0.007324
		C146.099609,258.037109,146.09668,258.034668,146.094727,258.032227 M146.082031,258.018555
		c0.00293,0.002441,0.005859,0.005371,0.007813,0.007813C146.086914,258.023926,146.084961,258.020996,146.082031,258.018555
		 M146.070313,258.005371c0.001953,0.00293,0.004883,0.005859,0.007813,0.008301
		C146.075195,258.010742,146.072266,258.008301,146.070313,258.005371 M146.056641,257.992188
		c0.00293,0.00293,0.005859,0.005859,0.008789,0.008789C146.0625,257.998047,146.05957,257.995117,146.056641,257.992188
		 M146.041016,257.976074L146.041016,257.976074c0.003906,0.004395,0.007813,0.008301,0.012695,0.012207
		C146.048828,257.984375,146.044922,257.97998,146.041016,257.976074L146.041016,257.976074"/>
	<path clip-path="url(#SVGID_16_)" fill="#27434D" d="M146.921875,260.031738c0.000977,0.000488,0,0,0.000977,0.000488
		L146.921875,260.031738 M146.917969,260.005371c0,0.000977,0,0.00293,0,0.004395
		C146.917969,260.007813,146.917969,260.006836,146.917969,260.005371 M146.913086,259.979004
		c0,0.002441,0.000977,0.004395,0.000977,0.006348C146.914063,259.983398,146.913086,259.981445,146.913086,259.979004
		 M146.908203,259.953125c0,0.001953,0.000977,0.004883,0.000977,0.006836
		C146.90918,259.958008,146.908203,259.955078,146.908203,259.953125 M146.90332,259.926758
		c0,0.00293,0.000977,0.006348,0.001953,0.009766C146.904297,259.933105,146.90332,259.929688,146.90332,259.926758
		 M146.898438,259.900879c0,0.003418,0.000977,0.006348,0.001953,0.009277
		C146.899414,259.907227,146.898438,259.904297,146.898438,259.900879 M146.893555,259.875488
		c0,0.003418,0.000977,0.006348,0.001953,0.009766C146.894531,259.881836,146.893555,259.878418,146.893555,259.875488
		 M146.887695,259.849609c0.000977,0.003418,0.001953,0.006348,0.001953,0.009766
		C146.889648,259.855957,146.888672,259.852539,146.887695,259.849609 M146.882813,259.822754
		c0.000977,0.003906,0.001953,0.008789,0.001953,0.012695C146.884766,259.831055,146.883789,259.827148,146.882813,259.822754
		 M146.876953,259.796875c0.000977,0.003906,0.001953,0.008789,0.00293,0.013184
		C146.878906,259.805176,146.87793,259.80127,146.876953,259.796875 M146.87207,259.770508
		c0.000977,0.005371,0.001953,0.009766,0.00293,0.015137C146.874023,259.780762,146.873047,259.775391,146.87207,259.770508
		 M146.865234,259.741699c0.001953,0.005859,0.00293,0.012695,0.003906,0.018555
		C146.868164,259.753906,146.867188,259.748535,146.865234,259.741699 M146.859375,259.714355
		c0.001953,0.006836,0.003906,0.015137,0.004883,0.021973C146.862305,259.729004,146.861328,259.72168,146.859375,259.714355
		 M146.853516,259.687012c0.001953,0.008301,0.003906,0.016113,0.004883,0.024414
		C146.857422,259.703125,146.855469,259.695313,146.853516,259.687012 M146.824219,259.561523
		c0.009766,0.041016,0.019531,0.08252,0.029297,0.125C146.84375,259.643555,146.833984,259.603027,146.824219,259.561523
		 M146.817383,259.536621c0.001953,0.007813,0.003906,0.014648,0.005859,0.022461
		C146.821289,259.55127,146.819336,259.544434,146.817383,259.536621 M146.811523,259.513184
		c0.001953,0.006836,0.003906,0.015137,0.005859,0.021973C146.81543,259.527832,146.813477,259.52002,146.811523,259.513184
		 M146.805664,259.48877c0.000977,0.006836,0.00293,0.013672,0.004883,0.02002
		C146.808594,259.501953,146.807617,259.495605,146.805664,259.48877 M146.798828,259.465332
		c0.001953,0.006348,0.003906,0.012695,0.005859,0.019043C146.802734,259.478027,146.800781,259.471191,146.798828,259.465332
		 M146.792969,259.440918c0.001953,0.006348,0.00293,0.012695,0.004883,0.019043
		C146.795898,259.454102,146.794922,259.447266,146.792969,259.440918 M146.786133,259.416992
		c0.001953,0.005859,0.003906,0.013672,0.005859,0.019531C146.790039,259.429688,146.788086,259.423828,146.786133,259.416992
		 M146.779297,259.393066c0.001953,0.006836,0.003906,0.012695,0.005859,0.02002
		C146.783203,259.40625,146.78125,259.399414,146.779297,259.393066 M146.772461,259.368652
		c0.001953,0.006836,0.003906,0.013672,0.005859,0.020996C146.776367,259.382324,146.774414,259.375488,146.772461,259.368652
		 M146.758789,259.320801c0.004883,0.015137,0.008789,0.030273,0.013672,0.04541
		C146.767578,259.351074,146.763672,259.335938,146.758789,259.320801 M146.686523,259.093262
		c0.025391,0.073242,0.049805,0.148438,0.072266,0.226563C146.736328,259.241699,146.711914,259.166504,146.686523,259.093262
		 M146.678711,259.070801c0.00293,0.006836,0.004883,0.01416,0.007813,0.020996
		C146.683594,259.084961,146.681641,259.077637,146.678711,259.070801 M146.671875,259.049316
		c0.001953,0.006836,0.004883,0.013672,0.006836,0.020996C146.676758,259.062988,146.673828,259.056641,146.671875,259.049316
		 M146.655273,259.005859c0.005859,0.01416,0.010742,0.027832,0.015625,0.04248
		C146.666016,259.033691,146.661133,259.02002,146.655273,259.005859 M146.555664,258.757813
		c0.035156,0.07959,0.068359,0.161621,0.099609,0.247559C146.624023,258.919434,146.59082,258.837402,146.555664,258.757813
		 M146.546875,258.738281c0.00293,0.006348,0.004883,0.011719,0.007813,0.018066
		C146.551758,258.75,146.549805,258.744629,146.546875,258.738281 M146.538086,258.71875
		c0.001953,0.005859,0.004883,0.012207,0.007813,0.018066C146.542969,258.730957,146.540039,258.724609,146.538086,258.71875
		 M146.52832,258.699219c0.00293,0.006348,0.005859,0.011719,0.008789,0.017578
		C146.53418,258.711426,146.53125,258.705078,146.52832,258.699219 M146.519531,258.680664
		c0.00293,0.005859,0.005859,0.011719,0.008789,0.01709C146.525391,258.692383,146.522461,258.686035,146.519531,258.680664
		 M146.510742,258.661621c0.00293,0.005371,0.004883,0.010742,0.007813,0.016113
		C146.515625,258.672363,146.513672,258.666992,146.510742,258.661621 M146.501953,258.642578
		c0.001953,0.005859,0.004883,0.010742,0.007813,0.016602C146.506836,258.653809,146.503906,258.647949,146.501953,258.642578
		 M146.492188,258.624023c0.00293,0.005371,0.005859,0.010742,0.007813,0.016113
		C146.498047,258.634766,146.495117,258.629395,146.492188,258.624023 M146.483398,258.605469
		c0.001953,0.004883,0.004883,0.010742,0.007813,0.016113C146.488281,258.615723,146.486328,258.61084,146.483398,258.605469
		 M146.472656,258.585938c0.00293,0.005371,0.006836,0.011719,0.008789,0.01709
		C146.478516,258.597168,146.476563,258.591797,146.472656,258.585938 M146.407227,258.464355
		c0.022461,0.039063,0.043945,0.079102,0.06543,0.120605C146.451172,258.543457,146.429688,258.503418,146.407227,258.464355
		L146.407227,258.464355"/>
	<path clip-path="url(#SVGID_16_)" fill="#FF6632" d="M141.987305,256.969238h-0.104492
		c-9.186523,0.025879-29.517578,6.806152-37.12207,13.183105c2.921875,1.681641,5.74707,3.708984,8.454102,5.971191
		c5.711914-3.585938,16.453125-6.972168,21.594727-6.972168c1.240234,0,2.154297,0.197266,2.59375,0.63623
		c2.432617,2.432129-2.303711,18.631348-7.003906,25.196289c1.126953,1.532227,2.202148,3.053711,3.223633,4.549805
		c6.419922-7.322266,13.397461-27.815918,13.460938-37.21875v-0.257324c-0.004883-0.756348-0.057617-1.436035-0.161133-2.025391
		c-0.000977-0.000488,0,0-0.000977-0.000488c-0.000977-0.007813-0.001953-0.014648-0.003906-0.021973
		c0-0.001465,0-0.003418,0-0.004395c-0.001953-0.006348-0.00293-0.013672-0.003906-0.02002
		c0-0.001953-0.000977-0.003906-0.000977-0.006348c-0.000977-0.006348-0.00293-0.012695-0.003906-0.019043
		c0-0.001953-0.000977-0.004883-0.000977-0.006836c-0.000977-0.005859-0.001953-0.01123-0.00293-0.016602
		c-0.000977-0.003418-0.001953-0.006836-0.001953-0.009766c-0.000977-0.005371-0.001953-0.01123-0.00293-0.016602
		c-0.000977-0.00293-0.001953-0.005859-0.001953-0.009277c-0.000977-0.005859-0.001953-0.009766-0.00293-0.015625
		c-0.000977-0.003418-0.001953-0.006348-0.001953-0.009766c-0.000977-0.005371-0.00293-0.01123-0.003906-0.016113
		c0-0.003418-0.000977-0.006348-0.001953-0.009766c-0.000977-0.004883-0.001953-0.009277-0.00293-0.01416
		c0-0.003906-0.000977-0.008789-0.001953-0.012695s-0.001953-0.008789-0.00293-0.012695
		c-0.000977-0.004395-0.001953-0.009277-0.00293-0.013184c0-0.003906-0.000977-0.007813-0.001953-0.01123
		c-0.000977-0.005371-0.001953-0.009766-0.00293-0.015137c-0.000977-0.003418-0.001953-0.006836-0.00293-0.010254
		c-0.000977-0.005859-0.001953-0.012695-0.003906-0.018555c0-0.001465-0.000977-0.003906-0.000977-0.005371
		c-0.000977-0.006836-0.00293-0.015137-0.004883-0.021973c0-0.000977,0-0.001953-0.000977-0.00293
		c-0.000977-0.008301-0.00293-0.016113-0.004883-0.024414v-0.000488c-0.009766-0.04248-0.019531-0.083984-0.029297-0.125
		c-0.000977-0.000488-0.000977-0.001953-0.000977-0.002441c-0.001953-0.007813-0.003906-0.014648-0.005859-0.022461
		c0-0.000488,0-0.000977,0-0.001465c-0.001953-0.006836-0.003906-0.015137-0.005859-0.021973
		c0-0.001465-0.000977-0.00293-0.000977-0.004395c-0.001953-0.006348-0.003906-0.013184-0.004883-0.02002
		c-0.000977-0.001465-0.000977-0.00293-0.000977-0.004395c-0.001953-0.006348-0.003906-0.012695-0.005859-0.019043
		c0-0.001953,0-0.003418-0.000977-0.005371c-0.001953-0.006348-0.00293-0.012695-0.004883-0.019043
		c-0.000977-0.001465-0.000977-0.00293-0.000977-0.004395c-0.001953-0.005859-0.003906-0.013672-0.005859-0.019531
		c0-0.001465-0.000977-0.00293-0.000977-0.003906c-0.001953-0.007324-0.003906-0.013184-0.005859-0.02002
		c0-0.000977,0-0.002441-0.000977-0.003418c-0.001953-0.007324-0.003906-0.01416-0.005859-0.020996
		c0-0.000977,0-0.001465,0-0.002441c-0.004883-0.015137-0.008789-0.030273-0.013672-0.04541v-0.000977
		c-0.022461-0.078125-0.046875-0.15332-0.072266-0.226563c0-0.000488,0-0.000977,0-0.001465
		c-0.00293-0.006836-0.004883-0.01416-0.007813-0.020996v-0.000488c-0.001953-0.007324-0.004883-0.01416-0.006836-0.020996
		l-0.000977-0.000977c-0.004883-0.014648-0.009766-0.02832-0.015625-0.04248v-0.000488
		c-0.03125-0.085938-0.064453-0.167969-0.099609-0.247559c0,0-0.000977-0.000977-0.000977-0.001465
		c-0.00293-0.006348-0.004883-0.011719-0.007813-0.018066c0-0.000488-0.000977-0.000977-0.000977-0.001465
		c-0.00293-0.005859-0.005859-0.012207-0.007813-0.018066c-0.000977-0.000488-0.000977-0.000977-0.000977-0.001953
		c-0.00293-0.005859-0.005859-0.01123-0.008789-0.017578c0-0.000488,0-0.000488,0-0.001465
		c-0.00293-0.005371-0.005859-0.01123-0.008789-0.01709c0-0.000977,0-0.001465-0.000977-0.00293
		c-0.00293-0.005371-0.004883-0.010742-0.007813-0.016113c-0.000977-0.001465-0.000977-0.001465-0.000977-0.002441
		c-0.00293-0.005859-0.005859-0.010742-0.007813-0.016602c-0.000977-0.000488-0.000977-0.001465-0.001953-0.002441
		c-0.001953-0.005371-0.004883-0.010742-0.007813-0.016113c0-0.000977-0.000977-0.001953-0.000977-0.002441
		c-0.00293-0.005371-0.005859-0.01123-0.007813-0.016113c-0.000977-0.000977-0.000977-0.001953-0.001953-0.002441
		c-0.001953-0.005371-0.005859-0.011719-0.008789-0.01709c0-0.000488,0-0.000977,0-0.000977
		c-0.021484-0.041504-0.042969-0.081543-0.06543-0.120605c-0.000977-0.001953-0.001953-0.003418-0.00293-0.004883
		c0-0.000977-0.000977-0.001465-0.000977-0.001953c-0.00293-0.005371-0.005859-0.010254-0.008789-0.015137
		c-0.000977-0.000977-0.000977-0.001953-0.001953-0.002441c-0.001953-0.004883-0.005859-0.010254-0.007813-0.014648
		c-0.000977-0.001465-0.001953-0.002441-0.001953-0.003418c-0.00293-0.004395-0.005859-0.008789-0.008789-0.013184
		c0-0.001465-0.000977-0.00293-0.001953-0.004395c-0.00293-0.003906-0.004883-0.008301-0.007813-0.012207
		c-0.000977-0.001465-0.001953-0.003418-0.00293-0.004883c-0.001953-0.003418-0.004883-0.008301-0.007813-0.011719
		c-0.000977-0.001953-0.000977-0.00293-0.001953-0.004395c-0.00293-0.004395-0.004883-0.007813-0.007813-0.012207
		c-0.000977-0.001465-0.001953-0.003418-0.00293-0.004395c-0.00293-0.003906-0.004883-0.007813-0.007813-0.011719
		c-0.000977-0.001465-0.001953-0.00293-0.00293-0.004883c-0.001953-0.003418-0.004883-0.007324-0.006836-0.01123
		c-0.000977-0.001465-0.00293-0.003418-0.003906-0.004883c-0.001953-0.003906-0.004883-0.007813-0.006836-0.011719
		c-0.000977-0.000977-0.001953-0.002441-0.00293-0.003906c-0.00293-0.003906-0.005859-0.007813-0.008789-0.012207
		c0-0.000977-0.000977-0.002441-0.001953-0.003418c-0.00293-0.004395-0.005859-0.008301-0.008789-0.012695
		c-0.000977-0.000977-0.000977-0.001953-0.001953-0.00293c-0.00293-0.003906-0.005859-0.008789-0.008789-0.012695
		c-0.000977-0.000977-0.001953-0.001953-0.001953-0.00293c-0.003906-0.004883-0.006836-0.010254-0.010742-0.015137l0,0
		c-0.010742-0.015137-0.022461-0.030762-0.033203-0.04541c-0.000977-0.001465-0.001953-0.00293-0.00293-0.004395
		c-0.00293-0.003418-0.005859-0.007324-0.008789-0.010742c-0.000977-0.000977-0.001953-0.00293-0.00293-0.003906
		c-0.00293-0.003418-0.004883-0.006836-0.007813-0.010254c-0.000977-0.001953-0.00293-0.003906-0.003906-0.005371
		c-0.00293-0.00293-0.004883-0.006348-0.007813-0.009277c-0.000977-0.001953-0.00293-0.003418-0.003906-0.005859
		c-0.00293-0.002441-0.004883-0.005371-0.006836-0.007813s-0.00293-0.004395-0.004883-0.006348
		c-0.001953-0.00293-0.004883-0.005371-0.006836-0.008301c-0.000977-0.001953-0.00293-0.003906-0.004883-0.005859
		c-0.001953-0.002441-0.003906-0.004883-0.005859-0.007813c-0.001953-0.001953-0.003906-0.004395-0.005859-0.006348
		c-0.001953-0.002441-0.003906-0.004883-0.005859-0.007324s-0.003906-0.003906-0.005859-0.006348
		s-0.003906-0.004883-0.005859-0.007324c-0.001953-0.001953-0.003906-0.003906-0.005859-0.006348
		s-0.003906-0.004883-0.005859-0.007324c-0.001953-0.001953-0.003906-0.003906-0.005859-0.005859
		c-0.001953-0.002441-0.003906-0.004883-0.005859-0.007324c-0.001953-0.001953-0.003906-0.003906-0.005859-0.005859
		c-0.001953-0.00293-0.003906-0.004883-0.006836-0.007813c-0.000977-0.001465-0.00293-0.003906-0.004883-0.005371
		c-0.001953-0.002441-0.004883-0.004883-0.006836-0.007324c-0.001953-0.001953-0.00293-0.003906-0.004883-0.005859
		c-0.001953-0.002441-0.004883-0.005371-0.007813-0.007813c-0.000977-0.001465-0.00293-0.003418-0.003906-0.004883
		c-0.00293-0.002441-0.005859-0.005371-0.007813-0.008301c-0.001953-0.001465-0.00293-0.00293-0.004883-0.004395
		c-0.00293-0.00293-0.005859-0.005859-0.008789-0.008789c-0.000977-0.001465-0.001953-0.002441-0.00293-0.003906
		c-0.004883-0.003906-0.008789-0.007813-0.012695-0.012207l0,0C145.351563,257.287109,143.923828,256.974609,141.987305,256.969238"
		/>
	<path clip-path="url(#SVGID_16_)" fill="#C4451C" d="M134.80957,269.151367c-5.141602,0-15.882813,3.38623-21.594727,6.972168
		c3.800781,3.175781,7.371094,6.814941,10.65625,10.615234c2.03125,2.364258,3.967773,4.777344,5.744141,7.189453l0,0
		c0.263672,0.352051,0.525391,0.70459,0.78418,1.055664c4.700195-6.564941,9.436523-22.76416,7.003906-25.196289
		C136.963867,269.348633,136.049805,269.151367,134.80957,269.151367"/>
	<path clip-path="url(#SVGID_16_)" fill="#FF6632" d="M89.746094,343.476563c-0.514648,0-0.931641-1.703125-0.931641-3.804688
		s0.416992-3.804688,0.931641-3.804688s0.931641,1.703125,0.931641,3.804688S90.260742,343.476563,89.746094,343.476563
		 M92.075195,334.425781c-0.514648,0-0.931641-1.703125-0.931641-3.804688s0.416992-3.804688,0.931641-3.804688
		s0.931641,1.703125,0.931641,3.804688S92.589844,334.425781,92.075195,334.425781 M89.746094,324.861328
		c-0.514648,0-0.931641-1.703125-0.931641-3.804688s0.416992-3.804688,0.931641-3.804688s0.931641,1.703125,0.931641,3.804688
		S90.260742,324.861328,89.746094,324.861328 M94.404297,324.861328c-0.514648,0-0.931641-1.703125-0.931641-3.804688
		s0.416992-3.804688,0.931641-3.804688s0.931641,1.703125,0.931641,3.804688S94.918945,324.861328,94.404297,324.861328
		 M87.486328,265.061035v61.766113c0.482422,0.144531,0.862305,1.788086,0.862305,3.793945
		c0,2.006836-0.379883,3.649414-0.862305,3.793945v13.571289c4.226563,0.006836,8.168945,0.560547,11.561523,1.554688l0,0
		l0.905273-0.554688c-2.682617-6.792969-3.397461-14.554688-1.651367-22.537109
		c3.540039-16.140625,16.205078-28.553223,31.313477-32.520996c-1.776367-2.412109-3.712891-4.825195-5.744141-7.189453
		c-3.285156-3.800293-6.855469-7.439453-10.65625-10.615234c-2.707031-2.262207-5.532227-4.289551-8.454102-5.971191
		c-0.000977,0.000488-0.000977,0.000977-0.001953,0.001465C99.298828,267.01123,93.499023,265.07666,87.486328,265.061035"/>
	<path clip-path="url(#SVGID_16_)" fill="#FF7A49" d="M89.746094,317.251953c-0.514648,0-0.931641,1.703125-0.931641,3.804688
		s0.416992,3.804688,0.931641,3.804688s0.931641-1.703125,0.931641-3.804688S90.260742,317.251953,89.746094,317.251953"/>
	<path clip-path="url(#SVGID_16_)" fill="#FF7A49" d="M94.404297,317.251953c-0.514648,0-0.931641,1.703125-0.931641,3.804688
		s0.416992,3.804688,0.931641,3.804688s0.931641-1.703125,0.931641-3.804688S94.918945,317.251953,94.404297,317.251953"/>
	<path clip-path="url(#SVGID_16_)" fill="#FF7A49" d="M87.486328,326.827148v7.587891
		c0.482422-0.144531,0.862305-1.787109,0.862305-3.793945C88.348633,328.615234,87.96875,326.97168,87.486328,326.827148"/>
	<path clip-path="url(#SVGID_16_)" fill="#FF7A49" d="M92.075195,326.816406c-0.514648,0-0.931641,1.703125-0.931641,3.804688
		s0.416992,3.804688,0.931641,3.804688s0.931641-1.703125,0.931641-3.804688S92.589844,326.816406,92.075195,326.816406"/>
	<path clip-path="url(#SVGID_16_)" fill="#FF7A49" d="M89.746094,335.867188c-0.514648,0-0.931641,1.703125-0.931641,3.804688
		s0.416992,3.804688,0.931641,3.804688s0.931641-1.703125,0.931641-3.804688S90.260742,335.867188,89.746094,335.867188"/>
	<path clip-path="url(#SVGID_16_)" fill="#473B30" d="M87.486328,347.986328v1.265625
		c2.419922,0.005859,4.680664,0.297852,6.625,0.820313l-5.367188,3.027344c-0.386719,0.21875-0.821289,0.333008-1.257813,0.344727
		v2.446289c0.777344,0,1.550781-0.175781,2.238281-0.599609l9.323242-5.75
		C95.655273,348.546875,91.712891,347.993164,87.486328,347.986328"/>
	<path clip-path="url(#SVGID_16_)" fill="#27434D" d="M145.112305,318.914063
		c0.548828,1.086914,0.834961,1.693359,0.834961,1.693359l0,0l0,0l-45.994141,28.378906l45.995117-28.378906
		C145.948242,320.607422,145.662109,320.000977,145.112305,318.914063"/>
	<path clip-path="url(#SVGID_16_)" fill="#735F4E" d="M87.486328,349.251953v4.192383
		c0.436523-0.011719,0.871094-0.125977,1.257813-0.344727l5.367188-3.027344
		C92.166992,349.549805,89.90625,349.257813,87.486328,349.251953"/>
	<path clip-path="url(#SVGID_16_)" fill="#EBBC8A" d="M107.486328,329.886719c-1.941406,0-3.513672-1.572266-3.513672-3.511719
		c0-1.941406,1.572266-3.513672,3.513672-3.513672c1.94043,0,3.512695,1.572266,3.512695,3.513672
		C110.999023,328.314453,109.426758,329.886719,107.486328,329.886719 M129.615234,293.928223L129.615234,293.928223
		c-15.108398,3.967773-27.773438,16.380371-31.313477,32.520996c-1.746094,7.982422-1.03125,15.744141,1.651367,22.537109l0,0
		l45.994141-28.378906c0,0-0.286133-0.606445-0.834961-1.693359c-1.654297-3.269531-5.692383-10.880859-11.492188-19.377441
		c0.000977-0.000977,0.001953-0.001953,0.00293-0.00293c-1.021484-1.496094-2.09668-3.017578-3.223633-4.549805
		C130.140625,294.632813,129.878906,294.280273,129.615234,293.928223"/>
	<path clip-path="url(#SVGID_16_)" fill="#473B30" d="M106.470703,326.451172c-0.689453,0-1.249023-0.558594-1.249023-1.248047
		s0.55957-1.25,1.249023-1.25c0.69043,0,1.249023,0.560547,1.249023,1.25S107.161133,326.451172,106.470703,326.451172
		 M107.486328,322.861328c-1.941406,0-3.513672,1.572266-3.513672,3.513672c0,1.939453,1.572266,3.511719,3.513672,3.511719
		c1.94043,0,3.512695-1.572266,3.512695-3.511719C110.999023,324.433594,109.426758,322.861328,107.486328,322.861328"/>
	<path clip-path="url(#SVGID_16_)" fill="#FFD3AD" d="M106.470703,323.953125c-0.689453,0-1.249023,0.560547-1.249023,1.25
		s0.55957,1.248047,1.249023,1.248047c0.69043,0,1.249023-0.558594,1.249023-1.248047S107.161133,323.953125,106.470703,323.953125"
		/>
</g>
</svg>
