<?xml version="1.0" encoding="utf-8"?>
<!-- Generator: Adobe Illustrator 15.0.0, SVG Export Plug-In  -->
<!DOCTYPE svg PUBLIC "-//W3C//DTD SVG 1.1//EN" "http://www.w3.org/Graphics/SVG/1.1/DTD/svg11.dtd" [
	<!ENTITY ns_flows "http://ns.adobe.com/Flows/1.0/">
]>
<svg version="1.1"
	 xmlns="http://www.w3.org/2000/svg" xmlns:xlink="http://www.w3.org/1999/xlink" xmlns:a="http://ns.adobe.com/AdobeSVGViewerExtensions/3.0/"
	 x="0px" y="0px" width="174px" height="174px" viewBox="0 0 174 174" enable-background="new 0 0 174 174" xml:space="preserve">
<defs>
</defs>
<path fill="#E66C90" d="M174.423828,87.211914c0,48.166016-39.046875,87.211914-87.212891,87.211914
	C39.046875,174.423828,0,135.37793,0,87.211914S39.046875,0,87.210938,0C135.376953,0,174.423828,39.045898,174.423828,87.211914"/>
<g>
	<defs>
		<path id="SVGID_2_" d="M0,87.211914c0,48.165039,39.045898,87.211914,87.211914,87.211914
			c48.165039,0,87.211914-39.046875,87.211914-87.211914C174.423828,39.045898,135.376953,0,87.211914,0
			C39.045898,0,0,39.045898,0,87.211914"/>
	</defs>
	<clipPath id="SVGID_4_">
		<use xlink:href="#SVGID_2_"  overflow="visible"/>
	</clipPath>
	<g clip-path="url(#SVGID_4_)">
		<defs>
			<polyline id="SVGID_3_" points="47.617188,229.655762 242.288086,229.655762 242.288086,42.061035 47.617188,42.061035 
				47.617188,229.655762 			"/>
		</defs>
		<clipPath id="SVGID_6_">
			<use xlink:href="#SVGID_3_"  overflow="visible"/>
		</clipPath>
		<path clip-path="url(#SVGID_6_)" fill="#EDB4C5" d="M126.173828,165.257813
			c-7.942383,3.972168-16.578125,6.769043-25.672852,8.159668v0.000488
			C109.595703,172.027344,118.231445,169.22998,126.173828,165.257813 M126.214844,165.237305
			c-0.00293,0.001465-0.004883,0.002441-0.006836,0.003418C126.209961,165.239746,126.211914,165.23877,126.214844,165.237305
			 M173.638672,75.456543c0.517578,3.844727,0.785156,7.769043,0.785156,11.755371l0,0
			C174.423828,83.225586,174.15625,79.30127,173.638672,75.456543L173.638672,75.456543"/>
		<path clip-path="url(#SVGID_6_)" fill="#D64C6F" d="M140.756836,42.575684c0.144531,0.310059,0.25293,0.686035,0.328125,1.119629
			c0.000977,0.000488,0.000977,0.001465,0.000977,0.002441c0.000977,0.006348,0.001953,0.013184,0.00293,0.019043
			c0,0.001465,0.000977,0.001953,0.000977,0.003418c0.000977,0.005859,0.001953,0.011719,0.00293,0.017578
			c0,0.002441,0.000977,0.003906,0.000977,0.006348c0.000977,0.004395,0.001953,0.009766,0.001953,0.01416
			c0.000977,0.003418,0.000977,0.006348,0.001953,0.010254c0.000977,0.003418,0.000977,0.006348,0.001953,0.009766
			c0,0.004883,0.000977,0.009766,0.001953,0.014648c0,0.002441,0.000977,0.003906,0.000977,0.006836
			c0.000977,0.005371,0.001953,0.010742,0.00293,0.016602c0,0.001953,0,0.003906,0.000977,0.005859
			c0.000977,0.005859,0.001953,0.012695,0.00293,0.018555c0,0.000977,0,0.001465,0,0.002441
			c0.070313,0.458496,0.105469,0.977539,0.109375,1.547852v0.011719c0,0.056152,0,0.11377,0,0.170898v0.010742
			c-0.003906,0.622559-0.043945,1.303223-0.117188,2.032715c-0.901367,8.970215-6.827148,25.235352-11.99707,30.015137
			c4.426758,8.431152,7.293945,17.378418,7.361328,25.341797c0,0.001953,0,0.00293,0,0.004883
			c0,0.029297,0,0.058105,0.000977,0.087891c0,0.003418,0,0.006836,0,0.010254c0,0.02832,0,0.057129,0,0.085449
			c0,0.00293,0,0.005859,0,0.008789c0,0.029297,0,0.059082,0,0.088379l0,0l0,0l0,0
			c0,14.535156-35.104492,37.708984-49.365234,37.708984c-8.204102,0-27.313477-9.027832-39.206055-20.15625l52.605469,52.60498
			c9.094727-1.390625,17.730469-4.1875,25.672852-8.159668c0.011719-0.005859,0.021484-0.010742,0.03418-0.01709
			c0.001953-0.000977,0.003906-0.001953,0.006836-0.003418c28.583984-14.316895,48.208984-43.879883,48.208984-78.025391
			c0-3.986328-0.267578-7.910645-0.785156-11.755371L140.756836,42.575684"/>
	</g>
</g>
<path fill="#E4D3A8" d="M45.589844,77.873535c-6.80957-5.789063-15.121094-32.300293-11.511719-35.910156
	c3.521484-3.520996,30.120117,4.703125,35.90918,11.513184C61.855469,61.608398,53.722656,69.741699,45.589844,77.873535"/>
<path fill="#7D4F31" d="M48.583984,74.539551c-5.043945-4.287109-11.199219-23.921875-8.525391-26.595703
	c2.607422-2.608398,22.307617,3.48291,26.594727,8.526855C60.630859,62.493652,54.607422,68.516602,48.583984,74.539551"/>
<path fill="#E4D3A8" d="M128.833008,77.873535c6.80957-5.789063,15.12207-32.300293,11.512695-35.910156
	c-3.521484-3.520996-30.121094,4.703125-35.910156,11.513184C112.568359,61.608398,120.701172,69.741699,128.833008,77.873535"/>
<path fill="#7D4F31" d="M125.838867,74.539551c5.043945-4.287109,11.200195-23.921875,8.526367-26.595703
	c-2.608398-2.608398-22.308594,3.48291-26.595703,8.526855C113.792969,62.493652,119.816406,68.516602,125.838867,74.539551"/>
<path fill="#E4D3A8" d="M107.944336,51.615723v0.152832H65.820313c-14.263672,10.974121-28.083984,33.75-28.083984,51.491211
	c0,17.277832,37.023438,37.708984,49.365234,37.708984c14.260742,0,49.365234-23.173828,49.365234-37.708984
	C136.466797,85.437988,122.285156,62.566895,107.944336,51.615723"/>
<path fill="#9E643E" d="M103.826172,119.560547c0,7.052246-7.4375,12.77002-16.610352,12.77002
	c-9.173828,0-16.610352-5.717773-16.610352-12.77002c0-7.051758,7.436523-12.77002,16.610352-12.77002
	C96.388672,106.790527,103.826172,112.508789,103.826172,119.560547"/>
<path fill="#7D4F31" d="M122.444336,99.084961c3.844727,16.395996-10.838867,31.483887-35.350586,23.337891
	c-21.943359,8.366211-38.397461-6.774902-35.351563-23.337891c3.279297-17.833008,14.949219-37.648926,35.351563-37.648926
	C106.982422,61.436035,118.209961,81.03125,122.444336,99.084961"/>
<path fill="#F5A4AC" d="M93.277344,116.865723l-4.875977,4.10791c-0.755859,0.637207-1.860352,0.637207-2.616211,0
	l-4.875977-4.10791c-1.364258-1.148926-0.550781-3.375977,1.233398-3.375977h9.902344
	C93.828125,113.489746,94.640625,115.716797,93.277344,116.865723"/>
<path fill="#FFBDC2" d="M92.044922,113.490234h-9.90332c-0.330078,0-0.612305,0.094727-0.869141,0.227051
	c-0.175781,0.300781-0.297852,0.615723-0.297852,0.947754c0,1.785156,2.738281,3.23291,6.119141,3.23291
	c3.378906,0,6.119141-1.447754,6.119141-3.23291c0-0.332031-0.12207-0.646973-0.298828-0.947754
	C92.658203,113.584961,92.375,113.490234,92.044922,113.490234"/>
<path fill="#3FC4D9" d="M76.719727,97.713867c0,0-4.805664,2.991699-8.931641,1.558594
	c-4.143555-1.438965-6.84668-4.446777-6.042969-6.759766c0.595703-1.713867,2.950195-2.536133,5.81543-2.25
	c0.996094,0.084961,2.050781,0.320801,3.116211,0.690918c0.932617,0.324219,1.754883,0.852051,2.47168,1.474121
	C75.568359,94.535645,76.719727,97.713867,76.719727,97.713867"/>
<path fill="#474747" d="M72.870117,94.679688c-0.797852,2.295898-2.926758,3.64502-4.772461,3.003906
	c-1.830078-0.635742-2.680664-3.019043-1.882813-5.314941c0.293945-0.849121,0.765625-1.562012,1.345703-2.105957
	c0.996094,0.084961,2.052734,0.320801,3.116211,0.690918c0.932617,0.324219,1.754883,0.852051,2.47168,1.474121
	C73.217773,93.140625,73.135742,93.914551,72.870117,94.679688"/>
<path fill="#FFFFFF" d="M68.177734,93.523926c0,0.90918-0.736328,1.64502-1.644531,1.64502
	c-0.90918,0-1.646484-0.73584-1.646484-1.64502s0.737305-1.645996,1.646484-1.645996
	C67.441406,91.87793,68.177734,92.614746,68.177734,93.523926"/>
<path fill="#3FC4D9" d="M97.710938,97.713867c0,0,4.806641,2.991699,8.932617,1.558594
	c4.143555-1.438965,6.845703-4.446777,6.042969-6.759766c-0.59668-1.713867-2.951172-2.536133-5.81543-2.25
	c-0.996094,0.084961-2.051758,0.320801-3.117188,0.690918c-0.931641,0.324219-1.753906,0.852051-2.47168,1.474121
	C98.863281,94.535645,97.710938,97.713867,97.710938,97.713867"/>
<path fill="#474747" d="M101.561523,94.679688c0.796875,2.295898,2.925781,3.64502,4.772461,3.003906
	c1.830078-0.635742,2.680664-3.019043,1.882813-5.314941c-0.294922-0.849121-0.765625-1.562012-1.345703-2.105957
	c-0.996094,0.084961-2.052734,0.320801-3.117188,0.690918c-0.931641,0.324219-1.753906,0.852051-2.470703,1.474121
	C101.212891,93.140625,101.294922,93.914551,101.561523,94.679688"/>
<path fill="#FFFFFF" d="M103.830078,94.552246c0,0.90918-0.736328,1.64502-1.644531,1.64502s-1.646484-0.73584-1.646484-1.64502
	s0.738281-1.645996,1.646484-1.645996S103.830078,93.643066,103.830078,94.552246"/>
<g>
	<defs>
		<polyline id="SVGID_1_" points="87.101563,140.96875 141.21875,140.96875 141.21875,41.121094 87.101563,41.121094 
			87.101563,140.96875 		"/>
	</defs>
	<clipPath id="SVGID_8_">
		<use xlink:href="#SVGID_1_"  overflow="visible"/>
	</clipPath>
	<path clip-path="url(#SVGID_8_)" fill="#C74259" d="M136.466797,103.162598c0,0.003418,0,0.005371,0,0.008789
		C136.466797,103.168457,136.466797,103.165527,136.466797,103.162598 M136.466797,103.066895c0,0.003418,0,0.006836,0,0.010254
		C136.466797,103.07373,136.466797,103.070313,136.466797,103.066895 M136.46582,102.974121c0,0.000977,0,0.003906,0,0.004883
		C136.46582,102.977051,136.46582,102.976074,136.46582,102.974121 M141.21875,45.57373
		c-0.00293,0.625977-0.042969,1.30957-0.117188,2.043457c0.073242-0.729492,0.113281-1.410156,0.117188-2.032715V45.57373
		 M141.109375,43.843262c0.070313,0.461426,0.106445,0.984375,0.109375,1.55957v-0.011719
		C141.214844,44.820801,141.179688,44.301758,141.109375,43.843262 M141.106445,43.822266
		c0.000977,0.005859,0.001953,0.012695,0.00293,0.018555C141.108398,43.834961,141.107422,43.828125,141.106445,43.822266
		 M141.102539,43.799805c0.000977,0.004883,0.001953,0.01123,0.00293,0.016602
		C141.104492,43.810547,141.103516,43.805176,141.102539,43.799805 M141.099609,43.77832
		c0,0.004883,0.000977,0.009766,0.001953,0.014648C141.100586,43.788086,141.099609,43.783203,141.099609,43.77832
		 M141.095703,43.758301c0.000977,0.003418,0.000977,0.006836,0.001953,0.010254
		C141.09668,43.764648,141.09668,43.761719,141.095703,43.758301 M141.092773,43.737793
		c0,0.002441,0.000977,0.003906,0.000977,0.006348C141.09375,43.741699,141.092773,43.740234,141.092773,43.737793
		 M141.088867,43.716797c0,0.001465,0.000977,0.001953,0.000977,0.003418
		C141.089844,43.71875,141.088867,43.718262,141.088867,43.716797 M141.084961,43.695313
		c0.000977,0.000488,0.000977,0.001465,0.000977,0.002441C141.085938,43.696777,141.085938,43.695801,141.084961,43.695313"/>
	<path clip-path="url(#SVGID_8_)" fill="#D4B986" d="M136.986328,41.121094h-0.151367
		c-7.516602,0.036133-23.864258,5.434082-30.554688,10.647461h-0.009766l0,0h1.673828v-0.152832
		c0.976563,0.746094,1.953125,1.547852,2.924805,2.398926c5.657227-3.463867,15.975586-6.695313,20.950195-6.695313
		c1.216797,0,2.115234,0.193848,2.545898,0.624512c2.503906,2.503906-2.734375,19.879395-7.552734,25.599121
		c0.800781,1.341797,1.56543,2.70459,2.287109,4.080566c5.171875-4.773926,11.099609-21.037109,12.001953-30.006348
		c0.074219-0.733887,0.114258-1.41748,0.117188-2.043457v-0.170898c-0.00293-0.575195-0.039063-1.098145-0.109375-1.55957
		c0-0.000977,0-0.001465,0-0.002441c-0.000977-0.005859-0.001953-0.012695-0.00293-0.018555
		c-0.000977-0.001953-0.000977-0.003906-0.000977-0.005859c-0.000977-0.005371-0.001953-0.011719-0.00293-0.016602
		c0-0.001953-0.000977-0.004883-0.000977-0.006836c-0.000977-0.004883-0.001953-0.009766-0.001953-0.014648
		c-0.000977-0.00293-0.001953-0.006836-0.001953-0.009766c-0.000977-0.003418-0.000977-0.006836-0.001953-0.010254
		c0-0.004395-0.000977-0.009766-0.001953-0.01416c0-0.002441-0.000977-0.003906-0.000977-0.006348
		c-0.000977-0.005859-0.001953-0.011719-0.00293-0.017578c0-0.001465-0.000977-0.001953-0.000977-0.003418
		c-0.000977-0.005859-0.001953-0.013184-0.00293-0.019043c0-0.000977,0-0.001953-0.000977-0.002441
		c-0.135742-0.77832-0.376953-1.369629-0.739258-1.731445C139.773438,41.391113,138.589844,41.128906,136.986328,41.121094"/>
	<path clip-path="url(#SVGID_8_)" fill="#744527" d="M131.819336,47.319336c-4.974609,0-15.292969,3.231445-20.950195,6.695313
		c5.818359,5.101074,11.450195,11.994629,15.943359,19.52832c4.818359-5.719727,10.056641-23.095215,7.552734-25.599121
		C133.93457,47.513184,133.036133,47.319336,131.819336,47.319336"/>
	<path clip-path="url(#SVGID_8_)" fill="#D4B986" d="M107.944336,51.615723v0.152832h-1.673828H87.101563v9.66748
		c19.883789,0.004883,31.108398,19.597168,35.342773,37.648926c2.952148,12.587402-5.017578,24.40332-19.969727,25.52832
		c-2.546875,4.539551-8.420898,7.717285-15.258789,7.717285c-0.038086,0-0.076172,0-0.114258,0v8.638184
		c14.260742,0,49.365234-23.173828,49.365234-37.708984l0,0c0-0.029297,0-0.059082,0-0.088379c0-0.003418,0-0.005371,0-0.008789
		c0-0.02832,0-0.057129,0-0.085449c0-0.003418,0-0.006836,0-0.010254c-0.000977-0.029297-0.000977-0.059082-0.000977-0.087891
		c0-0.000977,0-0.003906,0-0.004883c-0.067383-7.964355-2.950195-16.907227-7.37793-25.339355
		c0.003906-0.003906,0.007813-0.007813,0.011719-0.01123c-0.72168-1.375977-1.486328-2.73877-2.287109-4.080566
		c-4.493164-7.533691-10.125-14.427246-15.943359-19.52832C109.897461,53.163574,108.920898,52.361816,107.944336,51.615723"/>
	<path clip-path="url(#SVGID_8_)" fill="#935732" d="M87.101563,122.425293v9.905273c0.038086,0,0.076172,0,0.114258,0
		c6.837891,0,12.711914-3.177734,15.258789-7.717285c-0.767578,0.057617-1.553711,0.087402-2.358398,0.087402
		C96.18457,124.700684,91.826172,123.994629,87.101563,122.425293"/>
	<path clip-path="url(#SVGID_8_)" fill="#744527" d="M106.871094,90.262695c0.375-0.037109,0.740234-0.055664,1.094727-0.055664
		c2.355469,0,4.202148,0.815918,4.720703,2.305664c0.802734,2.312988-1.899414,5.320801-6.042969,6.759766
		c-0.796875,0.276855-1.620117,0.388672-2.428711,0.388672c-3.375,0-6.503906-1.947266-6.503906-1.947266
		s1.152344-3.178223,3.571289-5.286133c0.678711-0.587891,1.450195-1.091797,2.320313-1.418945
		c0.049805-0.019043,0.100586-0.037598,0.151367-0.055176C104.818359,90.583496,105.875,90.347656,106.871094,90.262695
		L106.871094,90.262695 M87.101563,61.436035v52.053711h4.943359c1.783203,0,2.595703,2.227051,1.232422,3.375977l-4.875977,4.10791
		c-0.375977,0.316895-0.837891,0.476074-1.299805,0.478027v0.973633c4.724609,1.569336,9.083008,2.275391,13.014648,2.275391
		c0.804688,0,1.59082-0.029785,2.358398-0.087402c14.952148-1.125,22.921875-12.940918,19.969727-25.52832
		C118.209961,81.033203,106.985352,61.440918,87.101563,61.436035"/>
	<path clip-path="url(#SVGID_8_)" fill="#E48F8A" d="M92.044922,113.489746h-4.943359v0.000488h4.943359
		c0.330078,0,0.613281,0.094727,0.869141,0.227051c0.176758,0.300781,0.298828,0.615723,0.298828,0.947754
		c0,1.783691-2.736328,3.230957-6.111328,3.23291v3.553711c0.461914-0.001953,0.923828-0.161133,1.299805-0.478027l4.875977-4.10791
		C94.640625,115.716797,93.828125,113.489746,92.044922,113.489746"/>
	<path clip-path="url(#SVGID_8_)" fill="#EDA59B" d="M92.044922,113.490234h-4.943359v4.407715
		c3.375-0.001953,6.111328-1.449219,6.111328-3.23291c0-0.332031-0.12207-0.646973-0.298828-0.947754
		C92.658203,113.584961,92.375,113.490234,92.044922,113.490234"/>
	<path clip-path="url(#SVGID_8_)" fill="#3BABAE" d="M107.96582,90.207031c-0.354492,0-0.719727,0.018555-1.094727,0.055664
		c0.580078,0.543945,1.050781,1.256836,1.345703,2.105957c0.797852,2.295898-0.052734,4.679199-1.882813,5.314941
		c-0.311523,0.10791-0.629883,0.159668-0.950195,0.159668c-1.109375,0-2.222656-0.621582-3.015625-1.655762
		c-0.060547,0.006348-0.121094,0.009766-0.182617,0.009766c-0.908203,0-1.646484-0.73584-1.646484-1.64502
		c0-0.568359,0.289063-1.069824,0.727539-1.365723c-0.013672-0.258301-0.007813-0.512207,0.016602-0.758789
		c0.677734-0.587891,1.449219-1.091797,2.319336-1.418945c-0.870117,0.327148-1.641602,0.831055-2.320313,1.418945
		c-2.418945,2.10791-3.571289,5.286133-3.571289,5.286133s3.128906,1.947266,6.503906,1.947266
		c0.808594,0,1.631836-0.111816,2.428711-0.388672c4.143555-1.438965,6.845703-4.446777,6.042969-6.759766
		C112.167969,91.022949,110.321289,90.207031,107.96582,90.207031"/>
	<path clip-path="url(#SVGID_8_)" fill="#423E39" d="M106.871094,90.262695c-0.996094,0.084961-2.052734,0.320801-3.117188,0.690918
		c-0.050781,0.017578-0.101563,0.036133-0.151367,0.055176c-0.870117,0.327148-1.641602,0.831055-2.319336,1.418945
		c-0.024414,0.246582-0.030273,0.500488-0.016602,0.758789c0.262695-0.176758,0.579102-0.280273,0.918945-0.280273
		c0.908203,0,1.644531,0.736816,1.644531,1.645996c0,0.847656-0.639648,1.544434-1.461914,1.635254
		c0.792969,1.03418,1.90625,1.655762,3.015625,1.655762c0.320313,0,0.638672-0.051758,0.950195-0.159668
		c1.830078-0.635742,2.680664-3.019043,1.882813-5.314941C107.921875,91.519531,107.451172,90.806641,106.871094,90.262695
		L106.871094,90.262695"/>
	<path clip-path="url(#SVGID_8_)" fill="#EDDFCC" d="M102.185547,92.90625c-0.339844,0-0.65625,0.103516-0.918945,0.280273
		c-0.438477,0.295898-0.727539,0.797363-0.727539,1.365723c0,0.90918,0.738281,1.64502,1.646484,1.64502
		c0.061523,0,0.12207-0.003418,0.182617-0.009766c0.822266-0.09082,1.461914-0.787598,1.461914-1.635254
		C103.830078,93.643066,103.09375,92.90625,102.185547,92.90625"/>
</g>
<path fill="#9E643E" d="M71.373047,88.680664c-0.411133,0.811035-2.523438,0.566895-4.71875-0.544922
	c-2.196289-1.111816-3.643555-2.669922-3.233398-3.480957c0.411133-0.811035,2.524414-0.566895,4.71875,0.544922
	C70.335938,86.311523,71.783203,87.869629,71.373047,88.680664"/>
<path fill="#9E643E" d="M103.050781,88.680664c0.410156,0.811035,2.522461,0.566895,4.71875-0.544922
	c2.195313-1.111816,3.642578-2.669922,3.232422-3.480957s-2.523438-0.566895-4.71875,0.544922
	S102.638672,87.869629,103.050781,88.680664"/>
</svg>
