<?xml version="1.0" encoding="utf-8"?>
<!-- Generator: Adobe Illustrator 15.0.0, SVG Export Plug-In  -->
<!DOCTYPE svg PUBLIC "-//W3C//DTD SVG 1.1//EN" "http://www.w3.org/Graphics/SVG/1.1/DTD/svg11.dtd" [
	<!ENTITY ns_flows "http://ns.adobe.com/Flows/1.0/">
]>
<svg version="1.1"
	 xmlns="http://www.w3.org/2000/svg" xmlns:xlink="http://www.w3.org/1999/xlink" xmlns:a="http://ns.adobe.com/AdobeSVGViewerExtensions/3.0/"
	 x="0px" y="0px" width="174px" height="174px" viewBox="0 211.29248 174 174" enable-background="new 0 211.29248 174 174"
	 xml:space="preserve">
<defs>
</defs>
<g>
	<defs>
		<path id="SVGID_4_" d="M0.206055,87.212402c0,48.164063,39.044922,87.210938,87.210938,87.210938
			s87.210938-39.046875,87.210938-87.210938C174.62793,39.044922,135.583008,0,87.416992,0S0.206055,39.044922,0.206055,87.212402"
			/>
	</defs>
	<clipPath id="SVGID_8_">
		<use xlink:href="#SVGID_4_"  overflow="visible"/>
	</clipPath>
	<g clip-path="url(#SVGID_8_)">
		<defs>
			<polyline id="SVGID_6_" points="28.920898,232.620605 244.875977,232.620605 244.875977,43.8125 28.920898,43.8125 
				28.920898,232.620605 			"/>
		</defs>
		<clipPath id="SVGID_10_">
			<use xlink:href="#SVGID_6_"  overflow="visible"/>
		</clipPath>
		<path clip-path="url(#SVGID_10_)" fill="#275172" d="M146.407227,44.180664c0.022461,0.039063,0.043945,0.079102,0.06543,0.120605
			c0,0,0,0.000488,0,0.000977c0.003906,0.005859,0.005859,0.01123,0.008789,0.01709
			c0.000977,0.000977,0.000977,0.000977,0.001953,0.002441c0.00293,0.005371,0.004883,0.010254,0.007813,0.016113
			c0,0.000488,0.000977,0.001465,0.000977,0.002441c0.00293,0.005371,0.005859,0.010742,0.007813,0.016113
			c0.000977,0.000977,0.000977,0.001953,0.001953,0.002441c0.001953,0.005371,0.004883,0.01123,0.007813,0.016602
			c0,0.000977,0.000977,0.001465,0.000977,0.002441c0.00293,0.005371,0.004883,0.010742,0.007813,0.016113
			c0,0.000977,0.000977,0.002441,0.000977,0.00293c0.00293,0.005371,0.005859,0.011719,0.008789,0.01709
			c0,0.000488,0,0.000977,0,0.001465c0.00293,0.005859,0.005859,0.012207,0.008789,0.017578
			c0,0.000977,0,0.001465,0.000977,0.001953c0.001953,0.005859,0.004883,0.012207,0.007813,0.018066
			c0,0.000488,0.000977,0.000977,0.000977,0.001465c0.00293,0.006348,0.004883,0.011719,0.007813,0.018066
			c0,0.000488,0.000977,0.001465,0.000977,0.001465c0.035156,0.07959,0.068359,0.161621,0.099609,0.247559v0.000488
			c0.005859,0.01416,0.010742,0.027832,0.015625,0.04248l0.000977,0.000977c0.001953,0.007324,0.004883,0.013672,0.006836,0.020996
			v0.000488c0.00293,0.006836,0.004883,0.01416,0.007813,0.020996c0,0.000488,0,0.000977,0,0.001465
			c0.025391,0.073242,0.049805,0.148438,0.072266,0.226563v0.000977c0.004883,0.015137,0.008789,0.030273,0.013672,0.04541
			c0,0.000977,0,0.001465,0,0.002441c0.001953,0.006836,0.003906,0.013672,0.005859,0.020996
			c0.000977,0.000977,0.000977,0.002441,0.000977,0.003418c0.001953,0.006348,0.003906,0.013184,0.005859,0.02002
			c0,0.001465,0.000977,0.002441,0.000977,0.003906c0.001953,0.006836,0.003906,0.012695,0.005859,0.019531
			c0,0.001465,0,0.00293,0.000977,0.004395c0.001953,0.006348,0.00293,0.013184,0.004883,0.019043
			c0,0.001465,0.000977,0.003906,0.000977,0.005371c0.001953,0.005859,0.003906,0.012695,0.005859,0.019043
			c0,0.001465,0,0.00293,0.000977,0.004395c0.001953,0.006836,0.00293,0.013184,0.004883,0.02002
			c0,0.001465,0.000977,0.00293,0.000977,0.004395c0.001953,0.006836,0.003906,0.014648,0.005859,0.021973
			c0,0.000488,0,0.000977,0,0.001465c0.001953,0.007813,0.003906,0.014648,0.005859,0.022461
			c0,0.000488,0,0.001953,0.000977,0.002441c0.009766,0.041504,0.019531,0.082031,0.029297,0.125c0,0.000488,0,0,0,0.000488
			c0.001953,0.008301,0.003906,0.016113,0.004883,0.024414c0.000977,0.000977,0.000977,0.001953,0.000977,0.00293
			c0.001953,0.007324,0.00293,0.014648,0.004883,0.021973c0.000977,0.002441,0.000977,0.003418,0.000977,0.005371
			c0.001953,0.006836,0.00293,0.012207,0.003906,0.018555c0.000977,0.003418,0.001953,0.006836,0.00293,0.010254
			c0.000977,0.004883,0.001953,0.010254,0.00293,0.015137c0.000977,0.003906,0.000977,0.007324,0.001953,0.01123
			c0.000977,0.004395,0.001953,0.008301,0.00293,0.013184c0.000977,0.004395,0.001953,0.008301,0.00293,0.012695
			s0.001953,0.008301,0.001953,0.012695c0.000977,0.004883,0.001953,0.009277,0.00293,0.01416
			c0.000977,0.00293,0.001953,0.006348,0.001953,0.009766c0.000977,0.005371,0.00293,0.010742,0.003906,0.016113
			c0,0.00293,0.000977,0.006348,0.001953,0.009766c0.000977,0.004883,0.001953,0.010742,0.00293,0.015625
			c0,0.003418,0.000977,0.006348,0.001953,0.009277c0.000977,0.005859,0.001953,0.010742,0.00293,0.016602
			c0,0.00293,0.000977,0.006348,0.001953,0.009766c0.000977,0.005371,0.001953,0.010742,0.00293,0.016602
			c0,0.001953,0.000977,0.004883,0.000977,0.006836c0.000977,0.006348,0.00293,0.013184,0.003906,0.019043
			c0,0.002441,0.000977,0.004395,0.000977,0.006348c0.000977,0.006836,0.001953,0.013184,0.003906,0.02002
			c0,0.001465,0,0.002441,0,0.004395c0.001953,0.007324,0.00293,0.014648,0.003906,0.021973l0.000977,0.000488
			c1.37793,7.827637-6.289063,31.510254-13.295898,39.507324c5.799805,8.496582,9.833008,16.105957,11.485352,19.374512
			c0.549805,1.086914,0.835938,1.693359,0.835938,1.693359l-45.995117,28.378906l-0.905273,0.554688l-9.323242,5.75
			c-0.708984,0.436523-1.509766,0.654297-2.310547,0.654297c-0.198242,0-0.397461-0.012695-0.594727-0.040039
			c-0.598633-0.081055-1.183594-0.286133-1.716797-0.614258l-9.146484-5.638672l-0.175781-0.111328l-0.904297-0.554688
			l-45.697266-28.205078l-0.257813,0.138672l67.34375,67.34375c44.010742-4.43457,78.363281-41.59082,78.363281-86.767578
			c0-5.585938-0.524414-11.044922-1.52832-16.338867L146.407227,44.180664"/>
	</g>
</g>
<path fill="#82B329" d="M174.423828,298.503418c0,48.166016-39.045898,87.212891-87.211914,87.212891
	c-48.165039,0-87.210938-39.046875-87.210938-87.212891s39.045898-87.210938,87.210938-87.210938
	C135.37793,211.29248,174.423828,250.337402,174.423828,298.503418"/>
<g>
	<defs>
		<path id="SVGID_2_" d="M0,298.503418c0,48.166016,39.046875,87.212891,87.211914,87.212891
			c48.166016,0,87.211914-39.046875,87.211914-87.212891S135.37793,211.29248,87.211914,211.29248
			C39.046875,211.29248,0,250.337402,0,298.503418"/>
	</defs>
	<clipPath id="SVGID_12_">
		<use xlink:href="#SVGID_2_"  overflow="visible"/>
	</clipPath>
	<g clip-path="url(#SVGID_12_)">
		<defs>
			<polyline id="SVGID_3_" points="44.220703,445.421387 235.707031,445.421387 235.707031,262.929199 44.220703,262.929199 
				44.220703,445.421387 			"/>
		</defs>
		<clipPath id="SVGID_14_">
			<use xlink:href="#SVGID_3_"  overflow="visible"/>
		</clipPath>
		<path clip-path="url(#SVGID_14_)" fill="#59980B" d="M136.655273,262.929199L136.655273,262.929199l-0.041992,0.03418
			c2.488281,2.592773,4.03125,6.098633,4.077148,9.96582v0.354492c-0.015625,1.293945-0.199219,2.546875-0.529297,3.739258
			c-0.001953,0.005859-0.00293,0.011719-0.004883,0.017578c-0.000977,0.00293-0.001953,0.005859-0.00293,0.008789
			c-1.512695,5.426758-6.070313,9.583984-11.716797,10.512695c5.776367,9.455078,9.212891,20.039063,9.321289,29.407227
			c0,0.005859,0,0.010742,0,0.015625c0.000977,0.011719,0.000977,0.027344,0.000977,0.039063c0,0.008789,0,0.017578,0,0.026367
			c0,0.011719,0,0.022461,0.000977,0.03418c0,0.011719,0,0.022461,0,0.03418c0,0.008789,0,0.020508,0,0.029297
			c0,0.019531,0,0.041016,0,0.060547c0,0.007813,0,0.014648,0,0.021484c0.000977,0.014648,0.000977,0.029297,0.000977,0.042969
			c0,0.008789,0,0.016602,0,0.025391c0,0.014648,0,0.02832,0,0.042969c0,0.006836,0,0.014648,0,0.021484
			c0,0.021484,0,0.042969,0,0.064453l0,0l0,0c0,24.275391-22.630859,30.890625-50.547852,30.890625l0,0
			c-0.000977,0-0.000977,0-0.000977,0l0,0c-17.967773,0-33.746094-2.741211-42.710938-11.166016l-0.279297,0.224609l48.1875,48.1875
			c45.035156-2.644531,80.881836-39.459961,81.988281-84.892578L136.655273,262.929199"/>
	</g>
</g>
<path fill="#474747" d="M63.037109,273.105957c0,8.091797-6.560547,14.651367-14.652344,14.651367
	s-14.651367-6.55957-14.651367-14.651367c0-8.092773,6.55957-14.652344,14.651367-14.652344
	S63.037109,265.013184,63.037109,273.105957"/>
<path fill="#5E5E5E" d="M58.641602,275.060059c0,4.583984-3.717773,8.302734-8.303711,8.302734
	c-4.584961,0-8.301758-3.71875-8.301758-8.302734c0-4.585938,3.716797-8.303711,8.301758-8.303711
	C54.923828,266.756348,58.641602,270.474121,58.641602,275.060059"/>
<path fill="#474747" d="M111.387695,273.105957c0,8.091797,6.55957,14.651367,14.651367,14.651367
	c8.092773,0,14.651367-6.55957,14.651367-14.651367c0-8.092773-6.558594-14.652344-14.651367-14.652344
	C117.947266,258.453613,111.387695,265.013184,111.387695,273.105957"/>
<path fill="#5E5E5E" d="M115.783203,275.060059c0,4.583984,3.716797,8.302734,8.302734,8.302734
	c4.584961,0,8.301758-3.71875,8.301758-8.302734c0-4.585938-3.716797-8.303711-8.301758-8.303711
	C119.5,266.756348,115.783203,270.474121,115.783203,275.060059"/>
<path fill="#E3DED3" d="M137.760742,317.427246c0,24.275391-22.630859,30.890625-50.547852,30.890625
	c-27.917969,0-50.548828-6.615234-50.548828-30.890625s22.630859-57.019531,50.548828-57.019531
	C115.129883,260.407715,137.760742,293.151855,137.760742,317.427246"/>
<path fill="#F7F1E6" d="M87.211914,334.918457c-2.131836,1.876953-5.367188,3.075195-8.993164,3.075195
	c-0.788086,0-1.558594-0.058594-2.303711-0.166016c0.661133,3.083984,5.462891,5.478516,11.296875,5.478516
	s10.636719-2.394531,11.297852-5.478516c-0.745117,0.107422-1.515625,0.166016-2.304688,0.166016
	C92.580078,337.993652,89.344727,336.79541,87.211914,334.918457"/>
<path fill="#474747" d="M65.883789,329.060059c-0.014648,0.183594-0.020508,0.365234-0.020508,0.546875
	c0,2.602539,1.466797,4.912109,3.708008,6.524414c2.24707,1.619141,5.294922,2.59375,8.647461,2.594727
	c3.787109-0.001953,7.183594-1.242188,9.478516-3.256836l-0.484375-0.549805l-0.484375,0.549805
	c2.292969,2.014648,5.69043,3.253906,9.476563,3.256836c3.352539-0.000977,6.400391-0.975586,8.648438-2.594727
	c2.241211-1.612305,3.708008-3.921875,3.708008-6.524414c0-0.404297-0.328125-0.732422-0.732422-0.732422
	s-0.732422,0.328125-0.732422,0.732422c0,2.02832-1.135742,3.913086-3.100586,5.335938
	c-1.959961,1.416016-4.723633,2.319336-7.791016,2.318359c-3.463867,0.00293-6.539063-1.152344-8.507813-2.891602
	c-0.277344-0.244141-0.691406-0.244141-0.96875,0c-1.970703,1.739258-5.044922,2.894531-8.509766,2.891602
	c-3.066406,0.000977-5.831055-0.902344-7.790039-2.318359c-1.964844-1.422852-3.100586-3.307617-3.100586-5.335938
	c0-0.146484,0.005859-0.291016,0.016602-0.431641c0.03125-0.40332-0.270508-0.755859-0.672852-0.788086
	C66.268555,328.355957,65.916016,328.656738,65.883789,329.060059L65.883789,329.060059"/>
<path fill="#474747" d="M99.44043,327.645996c0,2.306641-7.578125,6.164063-12.228516,6.164063
	c-4.305664,0-12.227539-3.857422-12.227539-6.164063c0-2.305664,5.473633-4.174805,12.227539-4.174805
	C93.964844,323.471191,99.44043,325.340332,99.44043,327.645996"/>
<path fill="#474747" d="M116.954102,305.022949c7.316406,7.316406,9.499023,16.998047,4.874023,21.623047
	c-4.625977,4.625-14.306641,2.443359-21.623047-4.874023c-7.317383-7.317383-9.499023-16.99707-4.874023-21.623047
	C99.956055,295.523926,109.636719,297.706543,116.954102,305.022949"/>
<path fill="#474747" d="M57.470703,305.022949c-7.317383,7.316406-9.499023,16.998047-4.874023,21.623047
	c4.625977,4.625,14.305664,2.443359,21.623047-4.874023c7.316406-7.317383,9.499023-16.99707,4.874023-21.623047
	C74.46875,295.523926,64.787109,297.706543,57.470703,305.022949"/>
<path fill="#FFFFFF" d="M74.887695,315.049316c0,1.791016-1.452148,3.243164-3.243164,3.243164
	c-1.791992,0-3.244141-1.452148-3.244141-3.243164s1.452148-3.243164,3.244141-3.243164
	C73.435547,311.806152,74.887695,313.258301,74.887695,315.049316"/>
<path fill="#474747" d="M71.643555,316.827637c-0.979492,0-1.777344-0.797852-1.777344-1.779297
	c0-0.979492,0.797852-1.776367,1.777344-1.776367c0.981445,0,1.779297,0.796875,1.779297,1.776367
	C73.422852,316.029785,72.625,316.827637,71.643555,316.827637"/>
<path fill="#FFFFFF" d="M106.023438,315.049316c0,1.791016-1.451172,3.243164-3.242188,3.243164
	c-1.792969,0-3.244141-1.452148-3.244141-3.243164s1.451172-3.243164,3.244141-3.243164
	C104.572266,311.806152,106.023438,313.258301,106.023438,315.049316"/>
<path fill="#474747" d="M102.780273,316.827637c-0.980469,0-1.77832-0.797852-1.77832-1.779297
	c0-0.979492,0.797852-1.776367,1.77832-1.776367s1.779297,0.796875,1.779297,1.776367
	C104.55957,316.029785,103.760742,316.827637,102.780273,316.827637"/>
<g>
	<defs>
		<polyline id="SVGID_1_" points="87.211914,348.317871 140.69043,348.317871 140.69043,258.45459 87.211914,258.45459 
			87.211914,348.317871 		"/>
	</defs>
	<clipPath id="SVGID_16_">
		<use xlink:href="#SVGID_1_"  overflow="visible"/>
	</clipPath>
	<path clip-path="url(#SVGID_16_)" fill="#7AA424" d="M135.426758,261.85498c0.415039,0.347656,0.811523,0.717773,1.186523,1.108398
		l0,0C136.238281,262.572754,135.842773,262.202637,135.426758,261.85498 M87.572266,260.409668c0.005859,0,0.009766,0,0.014648,0
		C87.582031,260.409668,87.577148,260.409668,87.572266,260.409668 M87.47168,260.408691c0.010742,0,0.024414,0,0.035156,0
		C87.495117,260.408691,87.483398,260.408691,87.47168,260.408691 M87.395508,260.407715
		c0.013672,0.000977,0.029297,0.000977,0.042969,0.000977C87.424805,260.408691,87.410156,260.408691,87.395508,260.407715
		 M87.304688,260.407715c0.022461,0,0.042969,0,0.06543,0C87.348633,260.407715,87.326172,260.407715,87.304688,260.407715
		 M87.212891,260.407715c0.023438,0,0.046875,0,0.070313,0c-0.022461,0-0.045898,0-0.068359,0 M87.211914,260.407715
		L87.211914,260.407715c0.000977,0,0.000977,0,0.000977,0C87.211914,260.407715,87.211914,260.407715,87.211914,260.407715
		 M125.649414,258.458496c-0.003906,0-0.008789,0-0.013672,0C125.640625,258.458496,125.645508,258.458496,125.649414,258.458496
		 M125.695313,258.45752c-0.006836,0-0.013672,0-0.019531,0C125.681641,258.45752,125.688477,258.45752,125.695313,258.45752
		 M125.741211,258.456543c-0.008789,0-0.016602,0-0.024414,0C125.724609,258.456543,125.733398,258.456543,125.741211,258.456543
		 M125.792969,258.455566c-0.010742,0-0.021484,0-0.033203,0.000977
		C125.771484,258.455566,125.78125,258.455566,125.792969,258.455566 M125.845703,258.45459
		c-0.011719,0-0.023438,0-0.035156,0.000977C125.822266,258.45459,125.833984,258.45459,125.845703,258.45459 M125.862305,258.45459
		L125.862305,258.45459L125.862305,258.45459L125.862305,258.45459"/>
	<path clip-path="url(#SVGID_16_)" fill="#548B0A" d="M87.211914,348.317871L87.211914,348.317871L87.211914,348.317871
		c0.000977,0,0.000977,0,0.000977,0 M137.760742,317.362793c0,0.021484,0,0.043945,0,0.064453l0,0
		C137.760742,317.405762,137.760742,317.384277,137.760742,317.362793 M137.760742,317.29834c0,0.015625,0,0.027344,0,0.042969
		C137.760742,317.32666,137.760742,317.312988,137.760742,317.29834 M137.759766,317.22998
		c0.000977,0.013672,0.000977,0.029297,0.000977,0.042969C137.760742,317.259277,137.760742,317.244629,137.759766,317.22998
		 M137.759766,317.147949c0,0.021484,0,0.040039,0,0.060547C137.759766,317.188965,137.759766,317.16748,137.759766,317.147949
		 M137.759766,317.084473c0,0.012695,0,0.021484,0,0.03418C137.759766,317.106934,137.759766,317.096191,137.759766,317.084473
		 M137.758789,317.023926c0,0.008789,0,0.017578,0,0.026367C137.758789,317.041504,137.758789,317.032715,137.758789,317.023926
		 M137.757813,316.969238c0,0.005859,0,0.009766,0,0.015625C137.757813,316.97998,137.757813,316.975098,137.757813,316.969238
		 M140.15625,277.040527c-0.000977,0.00293-0.001953,0.005859-0.00293,0.008789
		C140.154297,277.046387,140.155273,277.043457,140.15625,277.040527 M136.613281,262.963379L136.613281,262.963379
		c2.525391,2.631836,4.077148,6.206055,4.077148,10.142578c0,1.356445-0.18457,2.669922-0.529297,3.916992
		c0.330078-1.192383,0.513672-2.445313,0.529297-3.739258v-0.354492
		C140.644531,269.062012,139.101563,265.556152,136.613281,262.963379"/>
	<path clip-path="url(#SVGID_16_)" fill="#43413E" d="M126.21582,258.45459h-0.353516l0,0c-0.005859,0-0.011719,0-0.016602,0
		c-0.011719,0-0.023438,0-0.035156,0.000977c-0.005859,0-0.011719,0-0.017578,0c-0.011719,0-0.021484,0-0.033203,0.000977
		c-0.005859,0-0.012695,0-0.018555,0c-0.007813,0-0.016602,0-0.024414,0c-0.007813,0.000977-0.014648,0.000977-0.021484,0.000977
		s-0.013672,0-0.019531,0c-0.009766,0.000977-0.017578,0.000977-0.026367,0.000977c-0.003906,0-0.008789,0-0.013672,0
		c-6.557617,0.177734-12.026367,4.670898-13.705078,10.739258c1.450195,1.071289,2.854492,2.22168,4.210938,3.441406
		c1.036133-3.405273,4.200195-5.882813,7.944336-5.882813c4.584961,0,8.301758,3.717773,8.301758,8.303711
		c0,4.078125-2.942383,7.47168-6.820313,8.170898c1.007813,1.405273,1.961914,2.84668,2.859375,4.31543
		c5.647461-0.927734,10.211914-5.073242,11.726563-10.49707c0.000977-0.00293,0.001953-0.005859,0.00293-0.008789
		c0.001953-0.005859,0.00293-0.011719,0.004883-0.017578c0.344727-1.24707,0.529297-2.560547,0.529297-3.916992
		c0-3.936523-1.551758-7.510742-4.077148-10.142578c-0.375-0.390625-0.771484-0.760742-1.186523-1.108398
		C132.925781,259.766113,129.71875,258.495605,126.21582,258.45459"/>
	<path clip-path="url(#SVGID_16_)" fill="#585652" d="M124.085938,266.756348c-3.744141,0-6.908203,2.477539-7.944336,5.882813
		c3.490234,3.137695,6.657227,6.728516,9.425781,10.591797c3.87793-0.699219,6.820313-4.092773,6.820313-8.170898
		C132.387695,270.474121,128.670898,266.756348,124.085938,266.756348"/>
	<path clip-path="url(#SVGID_16_)" fill="#D6CCB9" d="M115.317383,329.072754c-4.694336,0-10.394531-2.583008-15.112305-7.300781
		c-7.317383-7.317383-9.499023-16.99707-4.874023-21.623047c1.642578-1.642578,3.923828-2.426758,6.509766-2.426758
		c4.694336,0,10.394531,2.583008,15.113281,7.300781c7.316406,7.316406,9.499023,16.998047,4.874023,21.623047
		C120.18457,328.288574,117.90332,329.072754,115.317383,329.072754 M87.212891,260.407715L87.212891,260.407715
		l-0.000977,63.063477c6.75293,0,12.228516,1.869141,12.228516,4.174805c0,2.306641-7.578125,6.164063-12.228516,6.164063v0.376953
		h0.000977c0.172852,0,0.345703,0.060547,0.484375,0.182617c1.966797,1.737305,5.036133,2.891602,8.496094,2.891602
		c0.003906,0,0.007813,0,0.011719,0c0.00293,0,0.005859,0,0.007813,0c3.064453,0,5.825195-0.90332,7.783203-2.318359
		c1.964844-1.422852,3.100586-3.307617,3.100586-5.335938c0-0.404297,0.328125-0.732422,0.732422-0.732422
		s0.732422,0.328125,0.732422,0.732422c0,2.602539-1.466797,4.912109-3.708008,6.524414
		c-1.78125,1.283203-4.063477,2.161133-6.601563,2.470703c-1.231445,2.701172-5.705078,4.704102-11.040039,4.704102v5.011719
		c0.000977,0,0.000977,0,0.000977,0c27.916016,0,50.547852-6.615234,50.547852-30.890625c0-0.020508,0-0.042969,0-0.064453
		c0-0.006836,0-0.014648,0-0.021484c0-0.015625,0-0.027344,0-0.042969c0-0.007813,0-0.016602,0-0.025391
		c0-0.013672,0-0.029297-0.000977-0.042969c0-0.006836,0-0.013672,0-0.021484c0-0.020508,0-0.039063,0-0.060547
		c0-0.009766,0-0.019531,0-0.029297c0-0.012695,0-0.021484,0-0.03418c-0.000977-0.011719-0.000977-0.022461-0.000977-0.03418
		c0-0.008789,0-0.017578,0-0.026367c0-0.012695,0-0.026367-0.000977-0.039063c0-0.005859,0-0.009766,0-0.015625
		c-0.109375-9.375977-3.560547-19.960938-9.344727-29.420898c0.004883-0.000977,0.008789-0.000977,0.013672-0.001953
		c-0.897461-1.46875-1.851563-2.910156-2.859375-4.31543c-2.768555-3.863281-5.935547-7.454102-9.425781-10.591797
		c-1.356445-1.219727-2.760742-2.370117-4.210938-3.441406c-0.000977,0.004883-0.00293,0.009766-0.003906,0.014648
		c-7.207031-5.329102-15.5-8.709961-24.339844-8.802734c-0.004883,0-0.008789,0-0.014648,0
		c-0.022461,0-0.042969-0.000977-0.06543-0.000977c-0.010742,0-0.024414,0-0.035156,0s-0.022461,0-0.033203,0
		c-0.013672,0-0.029297,0-0.042969-0.000977c-0.008789,0-0.016602,0-0.025391,0c-0.022461,0-0.042969,0-0.06543,0
		c-0.007813,0-0.013672,0-0.021484,0C87.259766,260.407715,87.236328,260.407715,87.212891,260.407715c0.000977,0,0,0-0.000977,0"/>
	<path clip-path="url(#SVGID_16_)" fill="#E8DDC9" d="M87.212891,335.870605h-0.000977v7.435547
		c5.334961,0,9.808594-2.00293,11.040039-4.704102c-0.666016,0.081055-1.349609,0.124023-2.046875,0.124023
		C92.677734,338.723145,89.486328,337.646973,87.212891,335.870605"/>
	<path clip-path="url(#SVGID_16_)" fill="#43413E" d="M107.829102,328.874512c-0.404297,0-0.732422,0.328125-0.732422,0.732422
		c0,2.02832-1.135742,3.913086-3.100586,5.335938c-1.958008,1.415039-4.71875,2.318359-7.783203,2.318359
		c-0.001953,0-0.004883,0-0.007813,0c-0.003906,0-0.007813,0-0.011719,0c-3.459961,0-6.529297-1.154297-8.496094-2.891602
		c-0.138672-0.12207-0.311523-0.182617-0.484375-0.182617h-0.000977v1.683594h0.000977
		c2.273438,1.776367,5.464844,2.852539,8.992188,2.855469c0.697266,0,1.380859-0.042969,2.046875-0.124023
		c2.538086-0.30957,4.820313-1.1875,6.601563-2.470703c2.241211-1.612305,3.708008-3.921875,3.708008-6.524414
		C108.561523,329.202637,108.233398,328.874512,107.829102,328.874512"/>
	<path clip-path="url(#SVGID_16_)" fill="#43413E" d="M87.211914,323.471191v10.338867
		c4.650391,0,12.228516-3.857422,12.228516-6.164063C99.44043,325.340332,93.964844,323.471191,87.211914,323.471191"/>
	<path clip-path="url(#SVGID_16_)" fill="#43413E" d="M102.78125,318.29248c-1.792969,0-3.244141-1.452148-3.244141-3.243164
		s1.451172-3.243164,3.244141-3.243164c1.791016,0,3.242188,1.452148,3.242188,3.243164S104.572266,318.29248,102.78125,318.29248
		 M101.84082,297.722168c-2.585938,0-4.867188,0.78418-6.509766,2.426758c-4.625,4.625977-2.443359,14.305664,4.874023,21.623047
		c4.717773,4.717773,10.417969,7.300781,15.112305,7.300781c2.585938,0,4.867188-0.78418,6.510742-2.426758
		c4.625-4.625,2.442383-14.306641-4.874023-21.623047C112.235352,300.305176,106.535156,297.722168,101.84082,297.722168"/>
	<path clip-path="url(#SVGID_16_)" fill="#F0EADF" d="M102.780273,316.827637c-0.980469,0-1.77832-0.797852-1.77832-1.779297
		c0-0.979492,0.797852-1.776367,1.77832-1.776367s1.779297,0.796875,1.779297,1.776367
		C104.55957,316.029785,103.760742,316.827637,102.780273,316.827637 M102.78125,311.806152
		c-1.792969,0-3.244141,1.452148-3.244141,3.243164s1.451172,3.243164,3.244141,3.243164
		c1.791016,0,3.242188-1.452148,3.242188-3.243164S104.572266,311.806152,102.78125,311.806152"/>
	<path clip-path="url(#SVGID_16_)" fill="#43413E" d="M102.780273,313.271973c-0.980469,0-1.77832,0.796875-1.77832,1.776367
		c0,0.981445,0.797852,1.779297,1.77832,1.779297s1.779297-0.797852,1.779297-1.779297
		C104.55957,314.068848,103.760742,313.271973,102.780273,313.271973"/>
</g>
</svg>
